<svg xmlns="http://www.w3.org/2000/svg" xml:space="preserve" id="Layer_1" width="1920" height="1080" x="0" y="0" style="enable-background:new 0 0 1920 1080" version="1.1"><style>.st0{fill:#fff}.st1,.st2,.st3{fill:#fff;stroke:#fff;stroke-miterlimit:10}.st1{stroke-width:4.6949;stroke-linecap:square;stroke-linejoin:round}.st2,.st3{stroke-width:15.8072}.st3{stroke-width:5.5325}</style><path d="M781.86 481.85c-6.72 11.92-13.81 23.17-21.27 33.76-7.47 10.59-14.74 19.86-21.83 27.8-7.09 7.94-13.67 14.18-19.73 18.7-6.07 4.53-11.06 6.79-14.97 6.79-5.04 0-7.56-2.86-7.56-8.61 0-3.97 1.49-9.43 4.48-16.38 2.98-6.95 6.95-15 11.9-24.16 4.94-9.15 10.59-19.14 16.93-29.95 6.23-10.62 12.74-21.56 19.51-32.83.16-.26-.03-.6-.34-.6l-12.5-1.57c-5.76 6.96-2.58 4.71-5.73 7.42-2.22 4.27-4.64 8.39-7.27 12.47-2.78 4.31-5.37 8.73-7.89 13.2-.35 6.55-3.3 13.21-6.78 18.61-.54.84-.94 1.36-.96 1.27-.74 1.61-1.31 3.41-1.96 5 1.33-3.22-1.55 3.77-1.51 3.69-.44.86-.97 1.74-1.5 2.55-3.11 4.73-7.15 9.29-12.31 11.79-.68.96-1.35 1.92-2.06 2.85-4.57 6.07-9.19 11.42-13.86 16.05-4.67 4.63-9.15 8.33-13.44 11.09-4.29 2.76-8.03 4.14-11.2 4.14-3.18 0-5.65-1.38-7.42-4.14-.42-.65-.78-1.38-1.1-2.17-.43.17-.86.35-1.3.5-.77.28-1.55.55-2.35.79-.66.35-1.72.9-2.38 1.25-.72.55-.71.54.03-.03-1.39 1.09-2.78 2.16-4.19 3.22-.76.58-1.15.88-1.22.93-.61.48-1.22.95-1.83 1.43 2.89 4.09 7.43 6.15 13.63 6.15 4.1 0 8.4-1.22 12.88-3.64 4.48-2.43 8.82-5.4 13.02-8.94 4.2-3.53 8.12-7.33 11.76-11.42 3.64-4.08 6.67-7.66 9.1-10.76l.56.33c-.94 3.09-1.82 6.12-2.66 9.1-.84 2.98-1.26 6.01-1.26 9.1 0 4.42 1.26 8.22 3.78 11.42 2.52 3.2 6.48 4.8 11.9 4.8 6.53 0 13.53-3.03 20.99-9.1 7.46-6.07 14.93-13.62 22.39-22.67 7.46-9.04 14.6-18.81 21.41-29.29 6.81-10.48 12.73-20.24 17.77-29.29l-1.66-.65z" class="st0"/><path d="m832.8 417.97-22.11 38.39h36.95l-1.68 3.97h-37.51c-7.47 14.35-14.14 26.76-20.01 37.24-5.88 10.48-10.83 19.53-14.84 27.14-4.01 7.61-7.05 14.02-9.1 19.2-2.06 5.19-3.08 9.76-3.08 13.74 0 4.19 1.21 7.12 3.64 8.77 2.42 1.65 5.22 2.48 8.4 2.48 6.72 0 14.14-3.03 22.25-9.1 8.12-6.07 16.19-13.51 24.21-22.34 8.02-8.82 15.67-18.2 22.95-28.13 7.28-9.93 13.44-18.87 18.47-26.81l1.68 1.32c-6.35 9.49-13.3 19.48-20.85 29.95-7.56 10.48-15.35 20.08-23.37 28.8-8.03 8.72-16.1 15.94-24.21 21.68-8.12 5.74-15.82 8.61-23.09 8.61-5.79 0-10.78-2.1-14.98-6.29-4.2-4.19-6.3-10.04-6.3-17.54 0-5.07 1.21-10.76 3.64-17.05 2.42-6.29 5.6-13.07 9.52-20.36 3.92-7.28 8.35-15.23 13.3-23.83 4.94-8.61 10.03-17.76 15.26-27.47h-15.12l1.68-3.97h15.68l21.82-38.4h16.8z" class="st0"/><path d="M938.61 456.36h18.19c-6.91 11.48-13.53 22.62-19.87 33.43-6.35 10.81-11.99 20.8-16.94 29.95-4.95 9.16-8.91 17.21-11.9 24.16-2.99 6.95-4.48 12.41-4.48 16.38 0 5.74 2.52 8.61 7.56 8.61 3.92 0 8.91-2.26 14.98-6.79 6.06-4.52 12.64-10.76 19.73-18.7 7.09-7.94 14.37-17.21 21.83-27.8 7.46-10.59 14.56-21.85 21.27-33.76l1.68.66c-5.04 9.05-10.97 18.81-17.77 29.29-6.81 10.48-13.95 20.25-21.41 29.29-7.47 9.05-14.93 16.61-22.39 22.67-7.47 6.07-14.46 9.1-20.99 9.1-5.41 0-9.38-1.6-11.9-4.8-2.52-3.2-3.78-7-3.78-11.42 0-3.09.42-6.12 1.26-9.1.84-2.98 1.72-6.01 2.66-9.1l-.56-.33c-2.43 3.09-5.46 6.68-9.1 10.76-3.64 4.09-7.56 7.89-11.76 11.42-4.2 3.53-8.54 6.51-13.02 8.94-4.48 2.43-8.77 3.64-12.88 3.64-6.91 0-11.76-2.54-14.56-7.61-2.8-5.07-4.2-10.81-4.2-17.21 0-9.04 2.42-19.03 7.28-29.95 4.85-10.92 11.01-21.18 18.48-30.78 7.46-9.6 15.58-17.59 24.35-24 8.77-6.4 17.07-9.6 24.91-9.6 3.73 0 7 .61 9.8 1.82 2.8 1.22 5.13 2.87 7 4.96a23.48 23.48 0 0 1 4.34 7.12 49.45 49.45 0 0 1 2.38 8.27h.56l9.25-19.52zm-91.54 92.68c0 5.08.88 8.99 2.66 11.75 1.77 2.76 4.24 4.14 7.42 4.14 3.17 0 6.9-1.38 11.2-4.14 4.29-2.76 8.77-6.45 13.44-11.09 4.66-4.63 9.28-9.98 13.86-16.05 4.57-6.07 8.63-12.52 12.18-19.36 3.54-6.84 6.44-13.79 8.68-20.85 2.24-7.06 3.36-13.79 3.36-20.19 0-5.07-1.22-8.94-3.64-11.58-2.43-2.65-5.41-3.97-8.96-3.97-5.6 0-11.85 2.87-18.75 8.61-6.91 5.74-13.44 13.07-19.59 22.01-6.16 8.94-11.34 18.81-15.54 29.62-4.22 10.8-6.32 21.17-6.32 31.1z" class="st0"/><path d="M1085.56 456.36a959.948 959.948 0 0 0-31.77 54.61 1982.6 1982.6 0 0 1-30.93 55.28c9.33-2.43 18.52-6.4 27.57-11.92 9.05-5.51 17.59-12.13 25.61-19.86 8.02-7.72 15.44-16.22 22.25-25.49 6.81-9.27 12.55-18.64 17.21-28.13l1.12 1.99c-8.21 16.55-17.21 30.34-27.01 41.37-9.8 11.04-19.27 19.86-28.41 26.48-9.15 6.62-17.36 11.42-24.63 14.4-7.28 2.98-12.5 4.69-15.68 5.13-.94.66-2.8 3.53-5.6 8.61-2.8 5.07-6.53 11.25-11.2 18.54-4.67 7.28-10.22 15-16.65 23.17-6.44 8.16-13.72 15.72-21.83 22.67-8.12 6.95-17.12 12.74-27.01 17.38-9.89 4.63-20.53 6.95-31.91 6.95-6.72 0-12.97-.88-18.75-2.65-5.78-1.77-10.78-4.3-14.98-7.61-4.2-3.31-7.46-7.28-9.8-11.92-2.33-4.63-3.5-9.82-3.5-15.56 0-9.49 2.9-17.38 8.68-23.67 5.79-6.29 13.06-9.43 21.83-9.43 1.87 0 3.41.11 4.62.33 1.22.22 2.47.55 3.78.99v2.65h-2.24c-7.28 0-12.69 2.7-16.24 8.11-3.54 5.4-5.32 12.63-5.32 21.68 0 5.96.89 11.03 2.66 15.23 1.78 4.19 4.2 7.61 7.28 10.26 3.08 2.65 6.67 4.58 10.78 5.79 4.11 1.21 8.59 1.82 13.44 1.82 8.21 0 16.28-2.27 24.21-6.79s15.54-10.48 22.81-17.87c7.28-7.4 14.23-15.72 20.85-24.99 6.62-9.27 12.88-18.59 18.75-27.97 5.88-9.38 11.24-18.42 16.1-27.14 4.85-8.71 9.14-16.16 12.88-22.34l-.56-.66c-2.99 4.19-6.3 8.44-9.94 12.74s-7.51 8.27-11.62 11.92c-4.11 3.64-8.4 6.62-12.88 8.94-4.48 2.32-9.15 3.48-14 3.48-3.55 0-6.63-.78-9.24-2.32a19.523 19.523 0 0 1-6.44-6.12c-1.68-2.53-2.89-5.35-3.64-8.44-.74-3.09-1.12-6.07-1.12-8.94 0-6.84 1.26-13.9 3.78-21.18 2.52-7.28 5.83-14.4 9.94-21.35A123.4 123.4 0 0 1 983.09 485c5.41-6.07 11.06-11.42 16.93-16.05 5.88-4.63 11.8-8.33 17.77-11.09 5.97-2.76 11.48-4.14 16.52-4.14 7.28 0 12.55 2.15 15.82 6.45 3.26 4.3 4.9 9.33 4.9 15.06h.84l10.36-18.87h19.33zm-51.79 1.33c-6.16 0-12.83 3.04-20.01 9.1-7.19 6.07-13.9 13.63-20.15 22.67-6.25 9.05-11.43 18.87-15.53 29.46-4.11 10.59-6.16 20.52-6.16 29.79 0 4.86 1.07 8.77 3.22 11.75 2.14 2.98 4.9 4.47 8.26 4.47 2.61 0 6.02-1.27 10.22-3.81 4.2-2.53 8.58-6.07 13.16-10.59 4.57-4.52 9.19-9.82 13.86-15.89 4.66-6.07 8.82-12.52 12.46-19.36 3.64-6.84 6.62-13.95 8.96-21.35 2.33-7.39 3.5-14.73 3.5-22.01 0-3.75-.89-7.06-2.66-9.93-1.8-2.87-4.84-4.3-9.13-4.3z" class="st0"/><path d="m1146.02 456.36-35.55 61.23.56.66c2.61-3.75 5.92-8.11 9.94-13.07 4.01-4.96 8.4-10.04 13.16-15.23 4.76-5.18 9.75-10.31 14.98-15.39 5.22-5.07 10.36-9.6 15.39-13.57.93-2.2 1.96-3.97 3.08-5.3 1.12-1.32 3.36-1.99 6.72-1.99 2.05 0 3.87.06 5.46.17 1.58.11 3.22.28 4.9.5-3.17 3.76-6.25 8.33-9.24 13.74s-4.48 11.31-4.48 17.71c0 5.08 1.07 9.05 3.22 11.92 2.14 2.87 4.8 4.3 7.98 4.3 2.8 0 5.55-.66 8.26-1.99 2.7-1.32 5.27-2.98 7.7-4.96 2.42-1.99 4.76-4.08 7-6.29 2.24-2.2 4.2-4.19 5.88-5.96l1.68 1.32a158.07 158.07 0 0 1-6.44 7.12 75.92 75.92 0 0 1-7.84 7.12 42.9 42.9 0 0 1-8.96 5.46c-3.17 1.44-6.44 2.15-9.8 2.15-5.97 0-10.78-2.15-14.42-6.45-3.64-4.3-5.46-10.31-5.46-18.04 0-5.3 1.02-10.04 3.08-14.23l-.56-.66c-7.65 6.18-16.05 14.29-25.19 24.33-9.15 10.04-18.85 21.9-29.11 35.58-3.73 4.86-7.61 11.25-11.62 19.2a213.26 213.26 0 0 0-10.5 24.49h-18.2c10.08-18.98 20.15-37.84 30.23-56.6 10.08-18.75 20.43-37.84 31.07-57.26h17.08z" class="st0"/><path d="M1287.93 456.36h18.19c-6.91 11.48-13.53 22.62-19.87 33.43-6.35 10.81-11.99 20.8-16.94 29.95-4.95 9.16-8.91 17.21-11.9 24.16-2.99 6.95-4.48 12.41-4.48 16.38 0 5.74 2.52 8.61 7.56 8.61 3.92 0 8.91-2.26 14.98-6.79 6.06-4.52 12.64-10.76 19.73-18.7 7.09-7.94 14.37-17.21 21.83-27.8 7.46-10.59 14.56-21.85 21.27-33.76l1.68.66c-5.04 9.05-10.97 18.81-17.77 29.29-6.81 10.48-13.95 20.25-21.41 29.29-7.47 9.05-14.93 16.61-22.39 22.67-7.47 6.07-14.46 9.1-20.99 9.1-5.41 0-9.38-1.6-11.9-4.8-2.52-3.2-3.78-7-3.78-11.42 0-3.09.42-6.12 1.26-9.1.84-2.98 1.72-6.01 2.66-9.1l-.56-.33c-2.43 3.09-5.46 6.68-9.1 10.76-3.64 4.09-7.56 7.89-11.76 11.42-4.2 3.53-8.54 6.51-13.02 8.94-4.48 2.43-8.77 3.64-12.88 3.64-6.91 0-11.76-2.54-14.56-7.61-2.8-5.07-4.2-10.81-4.2-17.21 0-9.04 2.42-19.03 7.28-29.95 4.85-10.92 11.01-21.18 18.48-30.78 7.46-9.6 15.58-17.59 24.35-24 8.77-6.4 17.07-9.6 24.91-9.6 3.73 0 7 .61 9.8 1.82 2.8 1.22 5.13 2.87 7 4.96a23.48 23.48 0 0 1 4.34 7.12 49.45 49.45 0 0 1 2.38 8.27h.56l9.25-19.52zm-91.53 92.68c0 5.08.88 8.99 2.66 11.75 1.77 2.76 4.24 4.14 7.42 4.14 3.17 0 6.9-1.38 11.2-4.14 4.29-2.76 8.77-6.45 13.44-11.09 4.66-4.63 9.28-9.98 13.86-16.05 4.57-6.07 8.63-12.52 12.18-19.36 3.54-6.84 6.44-13.79 8.68-20.85 2.24-7.06 3.36-13.79 3.36-20.19 0-5.07-1.22-8.94-3.64-11.58-2.43-2.65-5.41-3.97-8.96-3.97-5.6 0-11.85 2.87-18.75 8.61-6.91 5.74-13.44 13.07-19.59 22.01-6.16 8.94-11.34 18.81-15.54 29.62-4.22 10.8-6.32 21.17-6.32 31.1z" class="st0"/><path d="M1290.17 570.22c4.11-8.16 8.82-17.1 14.14-26.81 5.32-9.71 10.73-19.58 16.24-29.62 5.5-10.04 10.92-19.97 16.24-29.79 5.32-9.82 10.12-19.03 14.42-27.64h17.07l-36.95 61.56.56.66c3.54-5.07 7.84-11.31 12.88-18.7 5.04-7.39 10.59-14.51 16.66-21.35 6.06-6.84 12.55-12.69 19.45-17.54 6.9-4.85 14-7.28 21.27-7.28 4.48 0 8.16 1.38 11.06 4.14 2.89 2.76 4.34 6.78 4.34 12.08 0 3.09-.94 6.84-2.8 11.25-1.87 4.42-4.06 8.88-6.58 13.4-2.52 4.52-5.09 8.89-7.7 13.07-2.62 4.19-4.67 7.61-6.16 10.26l.56.66c3.92-6.62 8.63-13.68 14.14-21.18 5.5-7.5 11.38-14.51 17.63-21.02 6.25-6.51 12.69-11.92 19.31-16.22 6.62-4.3 13.02-6.45 19.17-6.45 5.41 0 9.47 1.55 12.18 4.63 2.7 3.09 4.06 7.39 4.06 12.91 0 3.76-1.08 8.17-3.22 13.24-2.15 5.08-4.86 10.43-8.12 16.05-3.27 5.63-6.77 11.31-10.5 17.05-3.73 5.74-7.23 11.25-10.5 16.55-3.27 5.3-5.97 10.21-8.12 14.73-2.15 4.52-3.22 8.33-3.22 11.42 0 2.65.7 4.75 2.1 6.29 1.4 1.55 3.12 2.32 5.18 2.32 4.48 0 9.75-2.09 15.82-6.29 6.06-4.19 12.6-10.04 19.59-17.54 7-7.5 14.32-16.49 21.97-26.98 7.65-10.48 15.39-22.01 23.23-34.59l2.24 1.32c-7.65 12.36-15.3 23.89-22.95 34.59-7.65 10.71-15.07 20.02-22.25 27.97-7.19 7.94-14.09 14.18-20.71 18.7-6.63 4.52-12.74 6.79-18.33 6.79-5.79 0-10.08-1.93-12.88-5.79-2.8-3.86-4.2-8.66-4.2-14.4 0-4.19 1.07-8.88 3.22-14.07 2.14-5.18 4.85-10.54 8.12-16.05 3.26-5.51 6.76-11.03 10.5-16.55 3.73-5.51 7.23-10.81 10.5-15.89 3.26-5.07 5.97-9.71 8.12-13.9 2.14-4.19 3.22-7.61 3.22-10.26 0-3.09-.7-5.24-2.1-6.45-1.4-1.21-3.13-1.82-5.18-1.82-3.74 0-8.12 1.49-13.16 4.47-5.04 2.98-10.31 7.17-15.81 12.58-5.51 5.41-11.15 11.7-16.94 18.87-5.79 7.17-11.43 14.9-16.93 23.17-5.51 8.28-10.69 16.99-15.54 26.15s-9.05 18.26-12.6 27.31H1354a612.857 612.857 0 0 1 16.94-33.1 6973 6973 0 0 1 16.93-30.62c5.22-9.38 9.61-17.54 13.16-24.49 3.54-6.95 5.32-12.08 5.32-15.39 0-5.96-2.61-8.94-7.84-8.94-4.67 0-9.89 2.04-15.68 6.12-5.79 4.09-11.66 9.38-17.63 15.89-5.97 6.51-11.85 13.9-17.63 22.18a492.867 492.867 0 0 0-16.38 24.99c-5.13 8.39-9.66 16.38-13.58 24-3.92 7.61-7 14.07-9.24 19.36h-18.2z" class="st0"/><path d="M781.86 481.85c-6.72 11.92-13.81 23.17-21.27 33.76-7.47 10.59-14.74 19.86-21.83 27.8-7.09 7.94-13.67 14.18-19.73 18.7-6.07 4.53-11.06 6.79-14.97 6.79-5.04 0-7.56-2.86-7.56-8.61 0-3.97 1.49-9.43 4.48-16.38 2.98-6.95 6.95-15 11.9-24.16 4.94-9.15 10.59-19.14 16.93-29.95 6.23-10.62 12.74-21.56 19.51-32.83.16-.26-.03-.6-.34-.6l-12.5-1.57c-5.76 6.96-2.58 4.71-5.73 7.42-2.22 4.27-4.64 8.39-7.27 12.47-2.78 4.31-5.37 8.73-7.89 13.2-.35 6.55-3.3 13.21-6.78 18.61-.54.84-.94 1.36-.96 1.27-.74 1.61-1.31 3.41-1.96 5 1.33-3.22-1.55 3.77-1.51 3.69-.44.86-.97 1.74-1.5 2.55-3.11 4.73-7.15 9.29-12.31 11.79-.68.96-1.35 1.92-2.06 2.85-4.57 6.07-9.19 11.42-13.86 16.05-4.67 4.63-9.15 8.33-13.44 11.09-4.29 2.76-8.03 4.14-11.2 4.14-3.18 0-5.65-1.38-7.42-4.14-.42-.65-.78-1.38-1.1-2.17-.43.17-.86.35-1.3.5-.77.28-1.55.55-2.35.79-.66.35-1.72.9-2.38 1.25-.72.55-.71.54.03-.03-1.39 1.09-2.78 2.16-4.19 3.22-.76.58-1.15.88-1.22.93-.61.48-1.22.95-1.83 1.43 2.89 4.09 7.43 6.15 13.63 6.15 4.1 0 8.4-1.22 12.88-3.64 4.48-2.43 8.82-5.4 13.02-8.94 4.2-3.53 8.12-7.33 11.76-11.42 3.64-4.08 6.67-7.66 9.1-10.76l.56.33c-.94 3.09-1.82 6.12-2.66 9.1-.84 2.98-1.26 6.01-1.26 9.1 0 4.42 1.26 8.22 3.78 11.42 2.52 3.2 6.48 4.8 11.9 4.8 6.53 0 13.53-3.03 20.99-9.1 7.46-6.07 14.93-13.62 22.39-22.67 7.46-9.04 14.6-18.81 21.41-29.29 6.81-10.48 12.73-20.24 17.77-29.29l-1.66-.65z" class="st1"/><path d="m832.8 417.97-22.11 38.39h36.95l-1.68 3.97h-37.51c-7.47 14.35-14.14 26.76-20.01 37.24-5.88 10.48-10.83 19.53-14.84 27.14-4.01 7.61-7.05 14.02-9.1 19.2-2.06 5.19-3.08 9.76-3.08 13.74 0 4.19 1.21 7.12 3.64 8.77 2.42 1.65 5.22 2.48 8.4 2.48 6.72 0 14.14-3.03 22.25-9.1 8.12-6.07 16.19-13.51 24.21-22.34 8.02-8.82 15.67-18.2 22.95-28.13 7.28-9.93 13.44-18.87 18.47-26.81l1.68 1.32c-6.35 9.49-13.3 19.48-20.85 29.95-7.56 10.48-15.35 20.08-23.37 28.8-8.03 8.72-16.1 15.94-24.21 21.68-8.12 5.74-15.82 8.61-23.09 8.61-5.79 0-10.78-2.1-14.98-6.29-4.2-4.19-6.3-10.04-6.3-17.54 0-5.07 1.21-10.76 3.64-17.05 2.42-6.29 5.6-13.07 9.52-20.36 3.92-7.28 8.35-15.23 13.3-23.83 4.94-8.61 10.03-17.76 15.26-27.47h-15.12l1.68-3.97h15.68l21.82-38.4h16.8z" class="st1"/><path d="M938.61 456.36h18.19c-6.91 11.48-13.53 22.62-19.87 33.43-6.35 10.81-11.99 20.8-16.94 29.95-4.95 9.16-8.91 17.21-11.9 24.16-2.99 6.95-4.48 12.41-4.48 16.38 0 5.74 2.52 8.61 7.56 8.61 3.92 0 8.91-2.26 14.98-6.79 6.06-4.52 12.64-10.76 19.73-18.7 7.09-7.94 14.37-17.21 21.83-27.8 7.46-10.59 14.56-21.85 21.27-33.76l1.68.66c-5.04 9.05-10.97 18.81-17.77 29.29-6.81 10.48-13.95 20.25-21.41 29.29-7.47 9.05-14.93 16.61-22.39 22.67-7.47 6.07-14.46 9.1-20.99 9.1-5.41 0-9.38-1.6-11.9-4.8-2.52-3.2-3.78-7-3.78-11.42 0-3.09.42-6.12 1.26-9.1.84-2.98 1.72-6.01 2.66-9.1l-.56-.33c-2.43 3.09-5.46 6.68-9.1 10.76-3.64 4.09-7.56 7.89-11.76 11.42-4.2 3.53-8.54 6.51-13.02 8.94-4.48 2.43-8.77 3.64-12.88 3.64-6.91 0-11.76-2.54-14.56-7.61-2.8-5.07-4.2-10.81-4.2-17.21 0-9.04 2.42-19.03 7.28-29.95 4.85-10.92 11.01-21.18 18.48-30.78 7.46-9.6 15.58-17.59 24.35-24 8.77-6.4 17.07-9.6 24.91-9.6 3.73 0 7 .61 9.8 1.82 2.8 1.22 5.13 2.87 7 4.96a23.48 23.48 0 0 1 4.34 7.12 49.45 49.45 0 0 1 2.38 8.27h.56l9.25-19.52zm-91.54 92.68c0 5.08.88 8.99 2.66 11.75 1.77 2.76 4.24 4.14 7.42 4.14 3.17 0 6.9-1.38 11.2-4.14 4.29-2.76 8.77-6.45 13.44-11.09 4.66-4.63 9.28-9.98 13.86-16.05 4.57-6.07 8.63-12.52 12.18-19.36 3.54-6.84 6.44-13.79 8.68-20.85 2.24-7.06 3.36-13.79 3.36-20.19 0-5.07-1.22-8.94-3.64-11.58-2.43-2.65-5.41-3.97-8.96-3.97-5.6 0-11.85 2.87-18.75 8.61-6.91 5.74-13.44 13.07-19.59 22.01-6.16 8.94-11.34 18.81-15.54 29.62-4.22 10.8-6.32 21.17-6.32 31.1z" class="st1"/><path d="M1085.56 456.36a959.948 959.948 0 0 0-31.77 54.61 1982.6 1982.6 0 0 1-30.93 55.28c9.33-2.43 18.52-6.4 27.57-11.92 9.05-5.51 17.59-12.13 25.61-19.86 8.02-7.72 15.44-16.22 22.25-25.49 6.81-9.27 12.55-18.64 17.21-28.13l1.12 1.99c-8.21 16.55-17.21 30.34-27.01 41.37-9.8 11.04-19.27 19.86-28.41 26.48-9.15 6.62-17.36 11.42-24.63 14.4-7.28 2.98-12.5 4.69-15.68 5.13-.94.66-2.8 3.53-5.6 8.61-2.8 5.07-6.53 11.25-11.2 18.54-4.67 7.28-10.22 15-16.65 23.17-6.44 8.16-13.72 15.72-21.83 22.67-8.12 6.95-17.12 12.74-27.01 17.38-9.89 4.63-20.53 6.95-31.91 6.95-6.72 0-12.97-.88-18.75-2.65-5.78-1.77-10.78-4.3-14.98-7.61-4.2-3.31-7.46-7.28-9.8-11.92-2.33-4.63-3.5-9.82-3.5-15.56 0-9.49 2.9-17.38 8.68-23.67 5.79-6.29 13.06-9.43 21.83-9.43 1.87 0 3.41.11 4.62.33 1.22.22 2.47.55 3.78.99v2.65h-2.24c-7.28 0-12.69 2.7-16.24 8.11-3.54 5.4-5.32 12.63-5.32 21.68 0 5.96.89 11.03 2.66 15.23 1.78 4.19 4.2 7.61 7.28 10.26 3.08 2.65 6.67 4.58 10.78 5.79 4.11 1.21 8.59 1.82 13.44 1.82 8.21 0 16.28-2.27 24.21-6.79s15.54-10.48 22.81-17.87c7.28-7.4 14.23-15.72 20.85-24.99 6.62-9.27 12.88-18.59 18.75-27.97 5.88-9.38 11.24-18.42 16.1-27.14 4.85-8.71 9.14-16.16 12.88-22.34l-.56-.66c-2.99 4.19-6.3 8.44-9.94 12.74s-7.51 8.27-11.62 11.92c-4.11 3.64-8.4 6.62-12.88 8.94-4.48 2.32-9.15 3.48-14 3.48-3.55 0-6.63-.78-9.24-2.32a19.523 19.523 0 0 1-6.44-6.12c-1.68-2.53-2.89-5.35-3.64-8.44-.74-3.09-1.12-6.07-1.12-8.94 0-6.84 1.26-13.9 3.78-21.18 2.52-7.28 5.83-14.4 9.94-21.35A123.4 123.4 0 0 1 983.09 485c5.41-6.07 11.06-11.42 16.93-16.05 5.88-4.63 11.8-8.33 17.77-11.09 5.97-2.76 11.48-4.14 16.52-4.14 7.28 0 12.55 2.15 15.82 6.45 3.26 4.3 4.9 9.33 4.9 15.06h.84l10.36-18.87h19.33zm-51.79 1.33c-6.16 0-12.83 3.04-20.01 9.1-7.19 6.07-13.9 13.63-20.15 22.67-6.25 9.05-11.43 18.87-15.53 29.46-4.11 10.59-6.16 20.52-6.16 29.79 0 4.86 1.07 8.77 3.22 11.75 2.14 2.98 4.9 4.47 8.26 4.47 2.61 0 6.02-1.27 10.22-3.81 4.2-2.53 8.58-6.07 13.16-10.59 4.57-4.52 9.19-9.82 13.86-15.89 4.66-6.07 8.82-12.52 12.46-19.36 3.64-6.84 6.62-13.95 8.96-21.35 2.33-7.39 3.5-14.73 3.5-22.01 0-3.75-.89-7.06-2.66-9.93-1.8-2.87-4.84-4.3-9.13-4.3z" class="st1"/><path d="m1146.02 456.36-35.55 61.23.56.66c2.61-3.75 5.92-8.11 9.94-13.07 4.01-4.96 8.4-10.04 13.16-15.23 4.76-5.18 9.75-10.31 14.98-15.39 5.22-5.07 10.36-9.6 15.39-13.57.93-2.2 1.96-3.97 3.08-5.3 1.12-1.32 3.36-1.99 6.72-1.99 2.05 0 3.87.06 5.46.17 1.58.11 3.22.28 4.9.5-3.17 3.76-6.25 8.33-9.24 13.74s-4.48 11.31-4.48 17.71c0 5.08 1.07 9.05 3.22 11.92 2.14 2.87 4.8 4.3 7.98 4.3 2.8 0 5.55-.66 8.26-1.99 2.7-1.32 5.27-2.98 7.7-4.96 2.42-1.99 4.76-4.08 7-6.29 2.24-2.2 4.2-4.19 5.88-5.96l1.68 1.32a158.07 158.07 0 0 1-6.44 7.12 75.92 75.92 0 0 1-7.84 7.12 42.9 42.9 0 0 1-8.96 5.46c-3.17 1.44-6.44 2.15-9.8 2.15-5.97 0-10.78-2.15-14.42-6.45-3.64-4.3-5.46-10.31-5.46-18.04 0-5.3 1.02-10.04 3.08-14.23l-.56-.66c-7.65 6.18-16.05 14.29-25.19 24.33-9.15 10.04-18.85 21.9-29.11 35.58-3.73 4.86-7.61 11.25-11.62 19.2a213.26 213.26 0 0 0-10.5 24.49h-18.2c10.08-18.98 20.15-37.84 30.23-56.6 10.08-18.75 20.43-37.84 31.07-57.26h17.08z" class="st1"/><path d="M1287.93 456.36h18.19c-6.91 11.48-13.53 22.62-19.87 33.43-6.35 10.81-11.99 20.8-16.94 29.95-4.95 9.16-8.91 17.21-11.9 24.16-2.99 6.95-4.48 12.41-4.48 16.38 0 5.74 2.52 8.61 7.56 8.61 3.92 0 8.91-2.26 14.98-6.79 6.06-4.52 12.64-10.76 19.73-18.7 7.09-7.94 14.37-17.21 21.83-27.8 7.46-10.59 14.56-21.85 21.27-33.76l1.68.66c-5.04 9.05-10.97 18.81-17.77 29.29-6.81 10.48-13.95 20.25-21.41 29.29-7.47 9.05-14.93 16.61-22.39 22.67-7.47 6.07-14.46 9.1-20.99 9.1-5.41 0-9.38-1.6-11.9-4.8-2.52-3.2-3.78-7-3.78-11.42 0-3.09.42-6.12 1.26-9.1.84-2.98 1.72-6.01 2.66-9.1l-.56-.33c-2.43 3.09-5.46 6.68-9.1 10.76-3.64 4.09-7.56 7.89-11.76 11.42-4.2 3.53-8.54 6.51-13.02 8.94-4.48 2.43-8.77 3.64-12.88 3.64-6.91 0-11.76-2.54-14.56-7.61-2.8-5.07-4.2-10.81-4.2-17.21 0-9.04 2.42-19.03 7.28-29.95 4.85-10.92 11.01-21.18 18.48-30.78 7.46-9.6 15.58-17.59 24.35-24 8.77-6.4 17.07-9.6 24.91-9.6 3.73 0 7 .61 9.8 1.82 2.8 1.22 5.13 2.87 7 4.96a23.48 23.48 0 0 1 4.34 7.12 49.45 49.45 0 0 1 2.38 8.27h.56l9.25-19.52zm-91.53 92.68c0 5.08.88 8.99 2.66 11.75 1.77 2.76 4.24 4.14 7.42 4.14 3.17 0 6.9-1.38 11.2-4.14 4.29-2.76 8.77-6.45 13.44-11.09 4.66-4.63 9.28-9.98 13.86-16.05 4.57-6.07 8.63-12.52 12.18-19.36 3.54-6.84 6.44-13.79 8.68-20.85 2.24-7.06 3.36-13.79 3.36-20.19 0-5.07-1.22-8.94-3.64-11.58-2.43-2.65-5.41-3.97-8.96-3.97-5.6 0-11.85 2.87-18.75 8.61-6.91 5.74-13.44 13.07-19.59 22.01-6.16 8.94-11.34 18.81-15.54 29.62-4.22 10.8-6.32 21.17-6.32 31.1z" class="st1"/><path d="M1290.17 570.22c4.11-8.16 8.82-17.1 14.14-26.81 5.32-9.71 10.73-19.58 16.24-29.62 5.5-10.04 10.92-19.97 16.24-29.79 5.32-9.82 10.12-19.03 14.42-27.64h17.07l-36.95 61.56.56.66c3.54-5.07 7.84-11.31 12.88-18.7 5.04-7.39 10.59-14.51 16.66-21.35 6.06-6.84 12.55-12.69 19.45-17.54 6.9-4.85 14-7.28 21.27-7.28 4.48 0 8.16 1.38 11.06 4.14 2.89 2.76 4.34 6.78 4.34 12.08 0 3.09-.94 6.84-2.8 11.25-1.87 4.42-4.06 8.88-6.58 13.4-2.52 4.52-5.09 8.89-7.7 13.07-2.62 4.19-4.67 7.61-6.16 10.26l.56.66c3.92-6.62 8.63-13.68 14.14-21.18 5.5-7.5 11.38-14.51 17.63-21.02 6.25-6.51 12.69-11.92 19.31-16.22 6.62-4.3 13.02-6.45 19.17-6.45 5.41 0 9.47 1.55 12.18 4.63 2.7 3.09 4.06 7.39 4.06 12.91 0 3.76-1.08 8.17-3.22 13.24-2.15 5.08-4.86 10.43-8.12 16.05-3.27 5.63-6.77 11.31-10.5 17.05-3.73 5.74-7.23 11.25-10.5 16.55-3.27 5.3-5.97 10.21-8.12 14.73-2.15 4.52-3.22 8.33-3.22 11.42 0 2.65.7 4.75 2.1 6.29 1.4 1.55 3.12 2.32 5.18 2.32 4.48 0 9.75-2.09 15.82-6.29 6.06-4.19 12.6-10.04 19.59-17.54 7-7.5 14.32-16.49 21.97-26.98 7.65-10.48 15.39-22.01 23.23-34.59l2.24 1.32c-7.65 12.36-15.3 23.89-22.95 34.59-7.65 10.71-15.07 20.02-22.25 27.97-7.19 7.94-14.09 14.18-20.71 18.7-6.63 4.52-12.74 6.79-18.33 6.79-5.79 0-10.08-1.93-12.88-5.79-2.8-3.86-4.2-8.66-4.2-14.4 0-4.19 1.07-8.88 3.22-14.07 2.14-5.18 4.85-10.54 8.12-16.05 3.26-5.51 6.76-11.03 10.5-16.55 3.73-5.51 7.23-10.81 10.5-15.89 3.26-5.07 5.97-9.71 8.12-13.9 2.14-4.19 3.22-7.61 3.22-10.26 0-3.09-.7-5.24-2.1-6.45-1.4-1.21-3.13-1.82-5.18-1.82-3.74 0-8.12 1.49-13.16 4.47-5.04 2.98-10.31 7.17-15.81 12.58-5.51 5.41-11.15 11.7-16.94 18.87-5.79 7.17-11.43 14.9-16.93 23.17-5.51 8.28-10.69 16.99-15.54 26.15s-9.05 18.26-12.6 27.31H1354a612.857 612.857 0 0 1 16.94-33.1 6973 6973 0 0 1 16.93-30.62c5.22-9.38 9.61-17.54 13.16-24.49 3.54-6.95 5.32-12.08 5.32-15.39 0-5.96-2.61-8.94-7.84-8.94-4.67 0-9.89 2.04-15.68 6.12-5.79 4.09-11.66 9.38-17.63 15.89-5.97 6.51-11.85 13.9-17.63 22.18a492.867 492.867 0 0 0-16.38 24.99c-5.13 8.39-9.66 16.38-13.58 24-3.92 7.61-7 14.07-9.24 19.36h-18.2z" class="st1"/><path d="M776.6 485.05c-8.16 14.45-17.13 28.35-27.37 41.98-1.25 1.67-2.52 3.32-3.8 4.97-.6.77-1.21 1.54-1.82 2.31a33.902 33.902 0 0 1-.35.43c-.32.4-.65.8-.97 1.2-2.42 2.97-4.9 5.89-7.46 8.74-.71.79-1.42 1.58-2.14 2.36-.32.35-.65.7-.98 1.05-.22.23-.43.46-.65.69-.56.6-.1.09.2-.21-1.45 1.4-2.82 2.89-4.27 4.29-.66.64-1.33 1.28-2.01 1.9-.3.28-.61.56-.91.84-.17.16-.74.67.09-.08.96-.86-.07.06-.21.18a99.294 99.294 0 0 1-3.84 3.23c-.19.15-.38.32-.58.46.12-.09 1.39-1.07.61-.48-.42.31-.83.63-1.25.94-.45.33-.9.65-1.35.97-.18.12-.42.24-.57.39.46-.46.9-.59.11-.08-.42.27-.84.53-1.27.78-.18.1-.35.21-.53.31-.73.42-.49.09.06-.03-.79.17-1.73.83-2.47 1.17-.47.21.27-.1.3-.11-.21.07-.41.15-.61.22-.39.13-.79.25-1.19.36-.33.09-.67.16-1 .23-.09.02-.68.11-.28.05.37-.05-.2.01-.26.02-1.48.09-2.95-.02-4.34-.54l.51.21c-2.16-.92-3.33-2.75-3.84-4.98l.12.54c-1.18-5.91 1.24-12.18 3.45-17.51 2.74-6.59 5.92-13.01 9.22-19.34 7.31-14.04 15.27-27.74 23.31-41.37 4.21-7.15 8.45-14.28 12.72-21.4 1.1-1.84 2.29-3.65 3.32-5.53.45-.82 1.02-2.07-.19-2.47-.18-.06-.3-.09-.48-.13-1.45-.29-2.97-.37-4.44-.56l-5.97-.75c-.55-.07-1.12-.19-1.67-.21-.27-.01-.21-.02-.6.04-1.26.17-2.44.96-3.47 1.65-1.8 1.2-3.5 2.64-4.89 4.28-1.84 2.16-3.71 4.45-5.06 6.97-.08.15-.16.31-.24.47-.34.74.46-.7.37-.58.43-.62 1.15-1.37 1.62-1.84-.24.25-.82.75.3-.26 1.17-1.05.43-.39.15-.15-1.75 1.54-3.34 3.1-4.46 5.16-.52.95-1.02 1.92-1.54 2.86-.94 1.69-1.91 3.37-2.91 5.03-.27.44-.05.09 0 0-.16.27-.33.53-.49.79-.25.4-.5.79-.75 1.19-.55.87-1.11 1.73-1.66 2.6a291.422 291.422 0 0 0-6.76 11.31c-.54.95-1.05 1.78-1.13 2.9-.08 1-.22 2-.4 2.99-.67 3.56-2.02 6.92-3.69 10.11-.44.83-.9 1.64-1.37 2.45-.26.45 0-.01.05-.08-.11.18-.22.36-.34.53-.12.19-.25.38-.37.57-.51.83-1.46 1.41 1.42-1.48 2.49-1.53 4.97-3.06 7.46-4.59h-.04c-1.97.14-3.85 1.6-5.33 2.76-1.74 1.36-3.89 3.11-4.81 5.18-.73 1.63-1.29 3.34-1.96 5-1.1 2.72 2.57.91 3.55.3 1.53-.95 3-2.07 4.28-3.35.97-.97 2.15-2.06 2.68-3.35.12-.28.22-.57.35-.85-3.5 2.13-7 4.27-10.51 6.4-.38.93-.76 1.85-1.14 2.78-.2.49-.41.97-.6 1.47-.04.1-.08.19-.12.29-.09.26-.17.53-.26.79.02-.14.04-.28.07-.42-.13.25-.27.5-.41.74-.24.41-.29.49-.14.23.33-.51-.4.6-.37.55l-.57.84c-.39.56-.79 1.11-1.21 1.66-.22.28-.69 1.09.01 0-.18.28-.44.54-.66.79-.22.26-.46.51-.68.77-.96 1.11 1.08-1.04.03-.03-.29.28-.57.61-.89.86.07-.06 1.4-1.18.47-.43-.1.09-.21.18-.31.26-.59.48-.42.35.51-.39-.18.09-.53.36-.66.48 1.11-1.04.69-.45.21-.15-.29.18-1.08.75.04.02-.42.27-.93.48-1.37.72-1.8.98-3.44 2.26-4.91 3.69-1.61 1.57-2.8 3.43-4.14 5.21-.49.66-.99 1.31-1.49 1.95-.2.26-.4.51-.6.77-.2.25-.4.51-.6.76.36-.45.41-.51.16-.2-2 2.45-4.04 4.87-6.17 7.21-.5.55-1.01 1.09-1.51 1.63-1.01 1.09.78-.8.11-.11-.25.26-.5.52-.76.78-1.2 1.22-2.43 2.42-3.69 3.58-.23.21-.47.41-.69.63 1.47-1.45.36-.32.03-.03-.5.44-1.01.88-1.52 1.31-.55.46-1.12.91-1.68 1.37-.78.63 1.49-1.13.31-.25-.33.25-.66.5-.99.74-.64.47-1.32.91-1.96 1.39 1.42-1.06.66-.44.28-.19-.46.3-.92.59-1.39.87-.25.15-.53.34-.8.47 1.29-.58-.43.2-.67.32-.25.12-.5.23-.75.34-.98.46.52-.14-.38.16-.69.23-1.38.46-2.09.62.02 0-1.08.21-.5.12-.32.05-.64.07-.96.09-1.36.07-2.69-.11-3.97-.59l.51.21c-2.52-1.08-4.13-3.22-5.17-5.69-.28-.67-2.28.28-2.41.33.63-.25-.58.21-.61.22-.32.12-.65.23-.97.34-.9.3-1.78.59-2.63 1.03-1.74.91-3.46 1.81-5.03 3l-.6 5.12c.19-.15.38-.29.56-.43l.6-5.12c-2.89 2.26-5.83 4.47-8.72 6.74-1.21.95-2.61 2.31-3.47 3.61-.36.55-1.24 1.64-.75 2.32 6.17 8.54 18.34 7.13 26.77 3.25 6.1-2.81 11.71-6.76 16.97-10.89 5.07-3.99 9.77-8.44 14.2-13.12 4.39-4.64 8.52-9.56 12.47-14.57-3.35 2.24-6.7 4.49-10.04 6.73.19.11.37.22.56.33l-.12-.54c-1.77 5.86-3.88 11.78-3.92 17.97-.03 4.95 1.55 10.47 5.44 13.79 3.56 3.04 8.74 3.78 13.25 3.28 5.79-.64 11.18-3.05 16.09-6.11 6.02-3.75 11.42-8.4 16.6-13.22 4.63-4.31 9-8.9 13.16-13.66 8.3-9.5 15.9-19.65 22.94-30.1a491.71 491.71 0 0 0 21.55-35.07c.42-.75.37-1.25-.36-1.54l-1.68-.66c-.73-.29-2.73.97-3.18 1.24-1.52.91-3.03 2.1-4.28 3.35-1.05.97-2.17 2.05-2.75 3.34-.31.7-.44 1.22.36 1.54l1.68.66-.36-1.54a449.74 449.74 0 0 1-6.13 10.63l-1.62 2.7c-.28.46-.55.91-.83 1.37.05-.09.28-.45.01-.01l-.6.99c-1.15 1.88-2.32 3.75-3.5 5.61-4.85 7.68-9.86 15.25-15.23 22.58a332.472 332.472 0 0 1-5.84 7.72l-.99 1.26-.42.54c-.67.85.35-.42-.09.11-2.83 3.49-5.71 6.95-8.74 10.28-.68.74-1.36 1.48-2.05 2.22-.21.22-.42.44-.63.67-.51.54.38-.39.38-.4-.38.46-.84.87-1.26 1.29-1.49 1.52-3.02 3-4.57 4.46-.31.29-.63.59-.95.88-1.3 1.19.92-.8-.03.03-.78.69-1.57 1.38-2.36 2.06-.74.63-1.49 1.25-2.24 1.86-.19.15-.4.3-.58.46.13-.12 1.34-1.01.33-.27-.51.37-1.01.74-1.52 1.1l-.57.39c-.73.51 1.36-.86.09-.07-.5.31-.99.62-1.49.91-.18.11-.37.21-.56.32-.69.41.88-.44.17-.1-.49.24-.97.49-1.46.73-.48.22-.97.42-1.45.64-.63.28.65-.22 0 0-.24.08-.48.17-.71.25-.93.32-1.87.59-2.83.8-1.69.38-3.22.51-5.21.43-2.05-.08-4.07-.43-5.98-1.18l.51.21c-4.42-1.85-7.09-5.99-8.17-10.55l.12.54c-1.64-7.7 1.24-15.4 3.44-22.67l-.12-.54c-.19-.11-.37-.22-.56-.33-1.29-.76-3.43.86-4.39 1.5-2.16 1.44-4.04 3.2-5.65 5.24-.15.19-.31.37-.45.57-.01.01.73-.9.33-.41-.28.35-.56.7-.84 1.04-.64.79-1.29 1.57-1.95 2.35a255.18 255.18 0 0 1-4.3 4.97c-.73.82-1.46 1.64-2.2 2.45-.31.34-.62.67-.93 1-.79.85.1-.13.23-.23-.23.19-.43.44-.64.65-.74.76-1.5 1.51-2.26 2.24-.38.37-.77.73-1.16 1.1-.22.21-.44.41-.67.62-.17.15-.98.88-.15.14.91-.81-.45.4-.67.59-.4.35-.8.7-1.21 1.04-.89.75-1.81 1.46-2.7 2.21.12-.1 1.37-1.05.38-.31a105.079 105.079 0 0 1-1.84 1.35c-.43.31-.86.61-1.3.91-.18.13-.38.24-.56.38 1.29-.99.43-.29.1-.08-.87.56-1.75 1.1-2.64 1.63-.4.24-.89.63-1.33.76.05-.02.91-.48.29-.16-.36.19-.72.38-1.08.55-.49.24-.99.48-1.5.7-.21.09-.42.18-.64.27.18-.07.66-.23-.19.07-.96.34-1.93.64-2.92.88-3.89.93-8.28.68-12.03-.82l.51.21a14.132 14.132 0 0 1-6.03-4.81l-4.22 5.93c.31-.24 1.65-1.27-.01.01.14-.11.28-.22.43-.33.45-.35.9-.69 1.35-1.03 1.34-1.02 2.67-2.04 4-3.08 1.43-1.12 2.84-2.25 4.04-3.63.51-.58 1.77-1.99 1.77-2.92 0-2.19-4.89 1.18-5.22 1.43-.19.14-.38.29-.56.43-1.43 1.11-2.84 2.25-4.04 3.63-.51.58-1.77 1.99-1.77 2.92 0 2.19 4.89-1.18 5.22-1.43.18-.13.35-.27.53-.41-.89.55-1.79 1.09-2.68 1.64.4-.21.79-.42 1.19-.62.21-.11.43-.21.63-.33.71-.41-.53.11.07-.06 1.41-.4 2.78-.99 4.14-1.53l-2.41.33c1.57 3.74 4.64 6.44 8.84 6.51 4.89.08 9.68-2.38 13.74-4.86 9.56-5.85 17.9-13.77 25.31-22.11 3.99-4.49 7.73-9.21 11.22-14.11l-7.63 6.4c7.92-3.93 14.68-10.38 19.6-17.69.57-.84 1.1-1.7 1.61-2.57.22-.36.44-.73.63-1.11.15-.24.26-.49.33-.77.22-.65.18-.53-.12.37.23-.38.36-.88.53-1.29.44-1.07.88-2.14 1.32-3.22 1.1-2.72-2.57-.91-3.55-.3-1.53.95-3 2.07-4.28 3.35-.99.99-2.09 2.06-2.68 3.35-.13.28-.23.57-.35.85 3.5-2.13 7-4.27 10.51-6.4.67-1.66 1.23-3.36 1.96-5-3.38 2.65-6.76 5.29-10.14 7.94 2.85-.2 5.67-2.8 7.6-4.69 1.3-1.28 2.39-2.7 3.35-4.24 1.28-2.05 2.48-4.13 3.51-6.32a45.98 45.98 0 0 0 2.59-6.97c.28-.98.51-1.97.69-2.97.17-.96.1-2.13.38-3.05.34-1.13 1.32-2.32 1.91-3.34.56-.97 1.13-1.94 1.7-2.9 1.23-2.07 2.22-3.65 3.69-5.94 2.72-4.25 5.28-8.59 7.62-13.07-1.36 1.53-2.72 3.07-4.07 4.6 2.21-1.91 4.49-3.9 5.87-6.53.09-.17.18-.34.26-.52.51-1.02-.69 1-.01.02.32-.47.65-.93 1-1.39.22-.29.45-.71.72-.94-.5.63-.55.69-.14.18.2-.24.39-.48.59-.72l-8.63 5.81c2.12.27 4.25.53 6.37.8l4.26.54c.69.09 1.47.09 2.12.33l-.51-.21c.04.08.09.15.13.23l-.12-.54c.03-.14-.58.8-.69.98-.3.5-.6.99-.9 1.49-.64 1.06-1.27 2.12-1.91 3.18-1.22 2.03-2.43 4.07-3.65 6.1-2.39 4-4.76 8-7.13 12.01-4.66 7.88-9.29 15.78-13.8 23.74-4.25 7.51-8.43 15.06-12.37 22.73-3.67 7.16-7.38 14.48-10 22.11-1.14 3.33-2.21 6.78-2.4 10.31-.15 2.74.19 6.15 2.24 8.19 2.05 2.04 5.21 2.31 7.92 1.92 3.98-.57 7.67-2.44 11.1-4.45 8.04-4.72 15.22-11.13 21.78-17.7 6.63-6.64 12.76-13.74 18.61-21.07 11.46-14.37 21.72-29.69 31-45.55 1.17-2 2.33-4.02 3.47-6.04.33-.59.45-1.39-.36-1.54-.9-.17-2.54.84-3.18 1.24-2.69 1.68-5.39 3.92-6.97 6.71z" class="st0"/><path d="M827.54 421.17c-2.48 4.3-4.96 8.61-7.44 12.91-3.98 6.91-7.96 13.82-11.94 20.72-.91 1.58-1.83 3.17-2.74 4.75-.25.43-.52 1.54.36 1.54h36.95l-.36-1.54c-.56 1.32-1.12 2.65-1.68 3.97 3.38-2.65 6.76-5.29 10.14-7.94H813.32c-1.9 0-3.96 1.69-5.33 2.76-1.81 1.42-3.73 3.11-4.81 5.18-7.97 15.31-16.28 30.43-24.64 45.53-3.93 7.1-7.84 14.22-11.56 21.44-3.75 7.26-7.6 14.76-9.8 22.67-1 3.58-1.68 7.49-1.09 11.2.57 3.63 2.25 6.19 5.63 7.75 7.28 3.35 15.95.63 22.68-2.84 9.31-4.8 17.47-11.68 25.17-18.69 7.17-6.53 13.78-13.66 20.11-21.01 12.07-14.03 23.06-29.03 33.22-44.49 1.04-1.59 2.07-3.18 3.09-4.78-3.35 2.24-6.7 4.49-10.04 6.73l1.68 1.32c.25-.77.5-1.55.75-2.32a1034.1 1034.1 0 0 1-15.44 22.39c-2.77 3.91-5.55 7.81-8.4 11.65a301.673 301.673 0 0 1-6.34 8.25c-.11.13-.73.91-.27.34.42-.52-.07.08-.13.16l-1.17 1.44c-2.88 3.53-5.83 7-8.87 10.4-1.49 1.67-3 3.32-4.54 4.95-.1.11-.37.49-.5.53.49-.14.74-.77.17-.18l-1.17 1.2c-.83.84-1.67 1.68-2.51 2.5-.83.81-1.67 1.61-2.52 2.4-.39.36-.78.73-1.18 1.09-.17.15-.34.31-.5.46-.67.62 1.2-1.06.22-.2-1.66 1.46-3.33 2.9-5.05 4.3-.39.32-.79.63-1.18.95-.17.13-.34.26-.51.4 1.52-1.22.81-.63.46-.37-.84.64-1.68 1.28-2.53 1.9-.84.61-1.69 1.2-2.53 1.8-.76.53.98-.62.2-.14l-.6.39c-.59.37-1.19.74-1.8 1.09-.2.12-.4.23-.6.34-1.27.73.64-.31-.11.06-.53.26-1.04.54-1.57.79-.58.28-1.16.55-1.75.8-.19.08-.39.16-.58.24-.46.21.5-.17-.27.11-2.04.74-4.12 1.35-6.26 1.71-3.75.65-8.26.33-12.06-1.19l.51.21c-6.5-2.73-11-8.33-12.61-15.13l.12.54c-2.86-12.92 3.01-25.64 8.61-36.97 6.16-12.47 13.33-24.43 20.17-36.53 4.05-7.16 8.02-14.37 11.91-21.61.23-.43.53-1.54-.36-1.54h-15.12l.36 1.54c.56-1.32 1.12-2.65 1.68-3.97-3.38 2.65-6.76 5.29-10.14 7.94h15.68c1.9 0 3.96-1.69 5.33-2.76 1.86-1.45 3.64-3.12 4.81-5.18 2.45-4.3 4.9-8.61 7.34-12.91 3.93-6.91 7.86-13.82 11.79-20.72.9-1.58 1.8-3.17 2.7-4.75-3.38 2.65-6.76 5.29-10.14 7.94h16.8c1.09 0 2.31-.71 3.18-1.24 1.51-.91 3.03-2.1 4.28-3.35.99-.98 2.11-2.06 2.68-3.35.21-.48.57-1.54-.36-1.54h-16.8c-1.9 0-3.96 1.69-5.33 2.76-1.86 1.45-3.64 3.12-4.81 5.18-2.45 4.3-4.9 8.61-7.34 12.91-3.93 6.91-7.86 13.82-11.79 20.72-.9 1.58-1.8 3.17-2.7 4.75 3.38-2.65 6.76-5.29 10.14-7.94H783.4c-1.9 0-3.96 1.69-5.33 2.76-1.71 1.33-3.94 3.12-4.81 5.18-.56 1.32-1.12 2.65-1.68 3.97-.18.43-.56 1.54.36 1.54h15.12l-.36-1.54c-8.82 16.38-18.28 32.39-27.16 48.73-4.27 7.86-8.37 15.88-11.42 24.3-2.91 8.02-4.52 16.52-2.34 24.93 1.88 7.25 7.37 12.96 14.54 15.19 7.9 2.46 16.8-.14 23.92-3.73 9.44-4.77 17.78-11.64 25.59-18.71 7.17-6.49 13.77-13.62 20.04-20.98 12.4-14.56 23.36-30.3 34.1-46.1 1.25-1.84 2.49-3.68 3.73-5.53.13-.19 1.32-1.87.75-2.32l-1.68-1.32c-1.13-.89-3.61.98-4.39 1.5-2.03 1.36-4.32 3.14-5.65 5.24-4.34 6.84-8.93 13.53-13.64 20.12-2.62 3.67-5.26 7.31-7.98 10.91a376.59 376.59 0 0 1-4.21 5.46l-1.03 1.3c-.06.07-.55.69-.14.17.41-.52-.08.1-.14.17-.74.92-1.48 1.84-2.23 2.75-2.82 3.44-5.71 6.83-8.67 10.15-1.48 1.67-2.97 3.32-4.5 4.95-.39.42-.78.83-1.17 1.24-.53.56.33-.35.33-.35.01.01-.59.61-.67.69-.78.8-1.56 1.59-2.35 2.38a179.26 179.26 0 0 1-4.87 4.68c-.39.36-.78.72-1.18 1.08-.99.91 1.05-.93.05-.04-.84.74-1.68 1.47-2.53 2.2-.78.66-1.57 1.32-2.36 1.97-.39.32-.79.64-1.18.96-.41.33-1.98 1.51-.21.18-.75.56-1.48 1.14-2.23 1.69-.46.34-.92.68-1.39 1.01-.2.14-.39.28-.59.41-.2.14-.39.27-.59.4l.63-.42c-.51.13-1.1.71-1.55.98-.51.31-1.02.6-1.53.9-.11.06-.74.44-.12.07.71-.42-.34.17-.49.25-.49.25-.99.49-1.49.72-.49.22-.98.44-1.47.65-.06.02-.67.27-.19.08.53-.21-.56.2-.54.19-.93.33-1.88.62-2.84.86-1.85.46-2.9.62-4.81.66-2.23.05-4.4-.31-6.47-1.15l.51.21c-3.05-1.35-4.99-3.38-5.74-6.67l.12.54c-1.3-6.57 1.16-13.38 3.71-19.34 2.82-6.59 6.12-12.96 9.49-19.28 6.74-12.66 13.89-25.1 20.72-37.71 4.24-7.84 8.4-15.72 12.52-23.62-3.38 2.65-6.76 5.29-10.14 7.94H841.08c1.9 0 3.96-1.69 5.33-2.76 1.71-1.33 3.94-3.12 4.81-5.18.56-1.32 1.12-2.65 1.68-3.97.18-.43.56-1.54-.36-1.54h-36.95l.36 1.54c2.48-4.3 4.96-8.61 7.44-12.91 3.98-6.91 7.96-13.82 11.94-20.72.91-1.58 1.83-3.17 2.74-4.75.34-.59.44-1.39-.36-1.54-.9-.17-2.54.84-3.18 1.24-2.73 1.7-5.38 3.93-6.99 6.72z" class="st0"/><path d="M933.72 461.1h18.19l-.36-1.54c-9.58 15.92-19.14 31.87-28.31 48.04-4.29 7.57-8.52 15.18-12.5 22.92-3.69 7.17-7.4 14.49-10.07 22.12-1.16 3.32-2.25 6.76-2.51 10.29-.21 2.79.05 6.27 2.04 8.43 1.86 2.02 4.94 2.5 7.54 2.17 4.07-.51 7.77-2.3 11.29-4.32 8.13-4.67 15.37-11.15 21.98-17.75 6.64-6.63 12.77-13.72 18.63-21.05 11.52-14.43 21.82-29.8 31.14-45.72 1.17-2 2.33-4.02 3.47-6.04-3.38 2.65-6.76 5.29-10.14 7.94l1.68.66-.36-1.54a449.74 449.74 0 0 1-6.13 10.63l-1.62 2.7c-.28.46-.55.91-.83 1.37.05-.09.28-.45.01-.01l-.6.99c-1.15 1.88-2.32 3.75-3.5 5.61-4.85 7.68-9.86 15.25-15.23 22.58a332.472 332.472 0 0 1-5.84 7.72l-.99 1.26-.42.54c-.67.85.35-.42-.09.11-2.83 3.49-5.71 6.95-8.74 10.28-.68.74-1.36 1.48-2.05 2.22-.21.22-.42.44-.63.67-.51.54.38-.39.38-.4-.38.46-.84.87-1.26 1.29-1.49 1.52-3.02 3-4.57 4.46-.31.29-.63.59-.95.88-1.3 1.19.92-.8-.03.03-.78.69-1.57 1.38-2.36 2.06-.74.63-1.49 1.25-2.24 1.86-.19.15-.4.3-.58.46.13-.12 1.34-1.01.33-.27-.51.37-1.01.74-1.52 1.1l-.57.39c-.73.51 1.36-.86.09-.07-.5.31-.99.62-1.49.91-.18.11-.37.21-.56.32-.69.41.88-.44.17-.1-.49.24-.97.49-1.46.73-.48.22-.97.42-1.45.64-.63.28.65-.22 0 0-.24.08-.48.17-.71.25-.93.32-1.87.59-2.83.8-1.69.38-3.22.51-5.21.43-2.05-.08-4.07-.43-5.98-1.18l.51.21c-4.42-1.85-7.09-5.99-8.17-10.55l.12.54c-1.64-7.7 1.24-15.4 3.44-22.67l-.12-.54c-.19-.11-.37-.22-.56-.33-1.29-.76-3.43.86-4.39 1.5-2.16 1.44-4.04 3.2-5.65 5.24-.15.19-.31.37-.45.57-.01.01.73-.9.33-.41-.28.35-.56.7-.84 1.04-.64.79-1.29 1.57-1.95 2.35a255.18 255.18 0 0 1-4.3 4.97c-.73.82-1.46 1.64-2.2 2.45-.36.39-.73.78-1.09 1.17-.5.54.38-.39.38-.4-.28.24-.53.55-.79.81-.75.76-1.5 1.5-2.27 2.24-.38.37-.77.73-1.16 1.1-.22.21-.45.41-.67.62-.71.66.11-.15.38-.33-.85.57-1.62 1.43-2.41 2.1-.41.35-.83.7-1.25 1.04-.18.15-.36.29-.54.44-.1.08-1.32 1.05-.35.29.94-.75-.5.37-.73.54-.43.32-.86.63-1.29.94-.43.31-.87.6-1.3.91-.35.24-.99.46.29-.19-.26.13-.5.33-.75.49-.87.56-1.75 1.1-2.65 1.62-.25.15-.51.29-.76.44-.1.06-.76.4-.13.08.65-.33-.08.04-.18.09-.36.18-.71.37-1.08.54-.49.24-1 .46-1.5.68-.08.04-.8.32-.19.09-.21.08-.42.16-.63.23-1.02.36-2.06.66-3.12.9-3.77.84-8.06.52-11.69-.94l.51.21c-5.99-2.57-8.71-8.76-10.14-14.77l.12.54c-1.97-8.77-.68-18.02 1.83-26.54 2.72-9.27 7.13-18.14 12.03-26.43.15-.26.31-.51.46-.77l.16-.27c-.25.41.23-.38.28-.46.16-.25.32-.51.48-.76a175.9 175.9 0 0 1 2.07-3.21c1.33-2.01 2.72-3.99 4.15-5.93.72-.98 1.45-1.95 2.19-2.9.33-.42.66-.84.99-1.27.51-.66-.58.71-.05.06.24-.29.48-.59.72-.89 1.52-1.85 3.08-3.67 4.69-5.44.4-.44.8-.87 1.2-1.3.2-.21.41-.42.6-.64-.1.12-1.06 1.09-.26.27.81-.83 1.62-1.65 2.45-2.46.82-.8 1.65-1.59 2.49-2.36.21-.19.41-.39.63-.58-.08.07-1.35 1.19-.44.4.42-.37.85-.75 1.27-1.11.85-.73 1.71-1.45 2.58-2.15.43-.35.86-.71 1.3-1.04-.08.06-1.44 1.11-.49.39.28-.21.55-.42.83-.63.91-.68 1.83-1.34 2.75-1.99.97-.69-.07.03-.22.14.24-.19.53-.35.79-.51.58-.37 1.17-.73 1.76-1.09l.78-.45c.24-.14 1.16-.72.08-.06.55-.34 1.16-.61 1.73-.89.57-.28 1.14-.54 1.72-.8.25-.11.51-.22.76-.33.77-.33-.23.07.24-.1 2.18-.8 4.4-1.46 6.68-1.86.75-.13 1.78-.24 2.8-.3 1.22-.07 2.44-.06 3.66.02 2.54.16 5.03.67 7.4 1.61l-.51-.21c3.74 1.57 6.85 4.07 9.15 7.42 2.4 3.49 3.69 7.64 4.63 11.74l-.12-.54c.1.45.19.9.28 1.35-.05.46.16.71.63.75h.56c1.9 0 3.96-1.69 5.33-2.76 1.76-1.38 3.83-3.11 4.81-5.18 2.69-5.68 5.38-11.36 8.06-17.05.39-.83.78-1.65 1.17-2.48 1.29-2.72-2.69-.83-3.55-.3-2.53 1.57-5.64 3.9-6.96 6.7-2.69 5.68-5.38 11.36-8.06 17.05-.39.83-.78 1.65-1.17 2.48 3.38-2.65 6.76-5.29 10.14-7.94h-.56l.63.75c-.89-4.45-2.12-9.06-4.58-12.93-2.34-3.68-5.6-6.41-9.61-8.11-8.04-3.4-17.11-1.78-24.91 1.44-9.8 4.04-18.38 10.94-26.18 17.99-7.37 6.66-13.96 14.16-19.86 22.13a154.297 154.297 0 0 0-14.71 24.21c-4.08 8.37-7.49 17.23-8.97 26.46-1.36 8.47-1 17.41 2.82 25.24 1.49 3.07 3.55 5.68 6.64 7.25 3.37 1.72 7.23 2.28 10.98 1.97 5.27-.45 10.06-2.49 14.64-5.01 4.85-2.68 9.38-5.89 13.71-9.34 8.09-6.44 15.18-14.02 21.81-21.93 1.47-1.76 2.91-3.54 4.32-5.34-3.35 2.24-6.7 4.49-10.04 6.73.19.11.37.22.56.33l-.12-.54c-1.77 5.86-3.88 11.78-3.92 17.97-.03 4.95 1.55 10.47 5.44 13.79 3.56 3.04 8.74 3.78 13.25 3.28 5.79-.64 11.18-3.05 16.09-6.11 6.02-3.75 11.42-8.4 16.6-13.22 4.63-4.31 9-8.9 13.16-13.66 8.3-9.5 15.9-19.65 22.94-30.1a491.71 491.71 0 0 0 21.55-35.07c.42-.75.37-1.25-.36-1.54l-1.68-.66c-.46-.18-1.52.37-1.91.54-1.24.57-2.36 1.38-3.42 2.21-1.85 1.45-3.65 3.12-4.81 5.18-8.16 14.45-17.13 28.35-27.37 41.98-1.25 1.67-2.52 3.32-3.8 4.97-.6.77-1.21 1.54-1.82 2.31a33.902 33.902 0 0 1-.35.43c-.32.4-.65.8-.97 1.2-2.42 2.97-4.9 5.89-7.46 8.74-.71.79-1.42 1.58-2.14 2.36-.32.35-.65.7-.98 1.05-.22.23-.43.46-.65.69-.56.6-.1.09.2-.21-1.45 1.4-2.82 2.89-4.27 4.29-.66.64-1.33 1.28-2.01 1.9-.3.28-.61.56-.91.84-.17.16-.74.67.09-.08.96-.86-.07.06-.21.18a99.294 99.294 0 0 1-3.84 3.23c-.19.15-.38.32-.58.46.12-.09 1.39-1.07.61-.48-.42.31-.83.63-1.25.94-.45.33-.9.65-1.35.97-.18.12-.42.24-.57.39.46-.46.9-.59.11-.08-.42.27-.84.53-1.27.78-.18.1-.35.21-.53.31-.73.42-.49.09.06-.03-.79.17-1.73.83-2.47 1.17-.47.21.27-.1.3-.11-.21.07-.41.15-.61.22-.39.13-.79.25-1.19.36-.33.09-.67.16-1 .23-.09.02-.68.11-.28.05.37-.05-.2.01-.26.02-1.48.09-2.95-.02-4.34-.54l.51.21c-2.16-.92-3.33-2.75-3.84-4.98l.12.54c-1.24-6.22 1.45-12.83 3.83-18.41 2.92-6.85 6.24-13.52 9.71-20.11 7.59-14.41 15.8-28.48 24.09-42.5 4.97-8.41 9.97-16.79 15-25.16.26-.43.51-1.54-.36-1.54h-18.19c-1.09 0-2.31.71-3.18 1.24-1.51.91-3.03 2.1-4.28 3.35-.99.98-2.11 2.06-2.68 3.35-.21.38-.57 1.44.37 1.44z" class="st0"/><path d="M841.56 553.03c.02 4.05.47 8.5 2.62 12.03 2.04 3.35 5.64 4.95 9.5 4.51 5.37-.61 10.22-3.45 14.64-6.4 4.86-3.24 9.35-6.99 13.61-10.98 7.89-7.39 14.99-15.78 21.18-24.63 5.95-8.5 11.02-17.66 14.98-27.26 3.87-9.4 6.99-19.33 7.27-29.56.11-4.1-.28-8.57-2.57-12.1-2.23-3.43-6.17-5.57-10.24-5.69-4.18-.12-8.37 1.27-12.06 3.11-5.39 2.67-10.31 6.29-14.82 10.25-8.13 7.13-15.26 15.3-21.4 24.2-5.6 8.13-10.36 16.84-14.23 25.92-4.04 9.48-7.16 19.42-8.14 29.72-.23 2.29-.33 4.58-.34 6.88-.01 2.21 4.69-1.04 5.22-1.43 1.45-1.07 2.87-2.25 4.04-3.63.64-.75 1.77-1.87 1.77-2.92.05-16.04 5.53-31.36 12.86-45.44.89-1.71 1.81-3.4 2.77-5.06.47-.83.96-1.65 1.45-2.47.01-.01.38-.63.15-.25s.15-.24.16-.25c.27-.43.54-.87.81-1.3 2.15-3.39 4.45-6.68 6.89-9.86l.84-1.08c.67-.87-.47.57.22-.27.65-.8 1.31-1.6 1.99-2.39 1.22-1.42 2.5-2.78 3.76-4.17-1.24 1.37-.16.17.15-.14.29-.3.59-.59.88-.88.68-.67 1.38-1.34 2.08-1.99.21-.2 1.28-1.16.35-.33-.92.83.14-.12.36-.31.76-.66 1.54-1.29 2.32-1.94.62-.52-.54.41-.53.41.26-.16.5-.38.75-.57.49-.36.99-.71 1.49-1.06.15-.1.79-.55.03-.02-.79.55.04-.02.21-.12.47-.3.96-.57 1.44-.86.54-.33-.35.2-.39.21.21-.03.51-.27.71-.37.4-.2.81-.4 1.22-.58.17-.08.35-.15.52-.23 1.09-.49-.52.17.12-.06.39-.14.78-.28 1.18-.41.81-.26 1.64-.46 2.48-.63.16-.03.32-.06.49-.09-.34.05-.02 0 .14-.01.42-.04.84-.08 1.27-.09 1.84-.07 3.64.22 5.36.91l-.51-.21c3.94 1.75 6.37 5.23 7.33 9.35l-.12-.54c.78 3.65.61 7.45.23 11.14-.41 4.06-1.23 8.07-2.35 12-2.27 7.97-5.6 15.69-9.44 23.02-3.76 7.16-7.72 13.25-12.89 19.9-.35.45-.7.89-1.05 1.33.6-.77-.05.06-.29.36-.69.85-1.39 1.7-2.1 2.54-1.33 1.56-2.68 3.1-4.07 4.61-.3.33-.6.65-.91.97-.15.16-.31.32-.45.48-.01.01.92-.95.41-.43-.73.74-1.45 1.48-2.19 2.21s-1.49 1.44-2.25 2.15c-.17.16-.35.31-.52.47-.58.55.55-.49.54-.48-.49.25-.94.83-1.36 1.19-.83.71-1.68 1.4-2.52 2.09-.62.51.7-.55.64-.5-.2.18-.44.34-.66.51-.43.33-.87.65-1.32.97-.38.27-.76.53-1.14.8-.59.42.64-.42.6-.39-.22.13-.43.28-.65.42-.54.35-1.09.67-1.63 1-.1.06-.78.38-.16.1.64-.29-.22.11-.34.17-.5.25-1.02.46-1.51.71-.46.23.09-.02.16-.05-.24.09-.48.18-.72.26-.69.23-1.88.55-2.32.62-1.32.22-3.32.06-4.84-.51l.51.21c-3.55-1.52-5.29-5.13-6.1-8.71l.12.54c-.45-2.16-.61-4.36-.62-6.57-.01-2.21-4.68 1.03-5.22 1.43-1.45 1.07-2.87 2.25-4.04 3.63-.67.72-1.82 1.85-1.81 2.89zM1080.91 458.57c-8.83 14.11-17.33 28.42-25.44 42.96-8.02 14.36-15.71 28.9-23.77 43.24-4.64 8.26-9.34 16.49-14.1 24.68-.69 1.18.05 1.72 1.19 1.42 18.06-4.75 34.35-14.69 48.73-26.39 14.34-11.67 26.93-25.65 37.6-40.72 5.86-8.28 11.15-17 15.64-26.1-3.55 2.58-7.1 5.15-10.65 7.73.37.66.75 1.32 1.12 1.99.05-.44.09-.88.14-1.33-1.71 3.43-3.48 6.82-5.34 10.17-.82 1.48-1.66 2.95-2.52 4.41-.38.65-.77 1.3-1.16 1.95 0 .01-.77 1.27-.33.55-.31.51-.62 1.01-.94 1.52-3.45 5.51-7.13 10.94-11.24 15.98.95-1.17.07-.09-.11.12-.25.31-.51.62-.77.93-.42.51-.85 1.02-1.28 1.53-1.14 1.34-2.32 2.66-3.5 3.96-1.21 1.34-2.45 2.66-3.69 3.98-1.14 1.21.99-1.01-.16.17-.33.34-.66.69-1 1.03-.66.67-1.32 1.34-1.99 2.01a204.342 204.342 0 0 1-5.58 5.35c-.32.3-.67.58-.98.89 1.56-1.6.15-.13-.23.2-1.17 1.03-2.35 2.04-3.55 3.04-.53.44-1.06.88-1.6 1.31-.32.26-.64.51-.96.77-.6.47-.42.34.52-.4-.21.16-.42.33-.64.49-1.21.93-2.44 1.83-3.68 2.72-.75.54-1.5 1.06-2.25 1.59-.34.23-.67.47-1.01.7-.28.19-2.08 1.45-.59.41-2.8 1.97-5.79 3.72-8.78 5.39-.23.13-1.46.87-.18.11-.35.21-.72.39-1.08.58-.59.31-1.18.61-1.77.91-1.36.68-2.73 1.32-4.12 1.93-3.08 1.33-5.36 2.21-8.76 3.36-2.21.75-4.44 1.41-6.74 1.84 1.08-.2-.31.04-.43.06-1.35.34-2.66 1.27-3.77 2.06-1.14.82-2.24 1.75-3.24 2.73a27.011 27.011 0 0 0-3.34 3.97c-3.48 5.06-6.19 10.66-9.36 15.92-.22.37-.44.73-.67 1.1.47-.76-.29.48-.31.51-.4.65-.79 1.29-1.19 1.93a502.72 502.72 0 0 1-3.09 4.9c-1.88 2.94-3.81 5.85-5.81 8.72-2.11 3.03-4.29 6.02-6.51 8.97-1.09 1.45-2.2 2.9-3.32 4.33-.52.67-1.04 1.33-1.57 2-.95 1.21.74-.9-.24.3-.39.47-.77.95-1.16 1.42-2.25 2.72-4.61 5.35-7.02 7.93-1.1 1.17 1.01-1.03-.11.11-.32.33-.65.66-.97.99a163.578 163.578 0 0 1-5.69 5.5c-.07.06-1.02.96-1.04.95.23-.21.46-.42.7-.63-.23.21-.47.42-.7.62-.59.52-1.18 1.04-1.77 1.55-1.37 1.18-2.79 2.31-4.19 3.45 1.8-1.46-.59.43-1.03.76-.66.49-1.33.98-2.01 1.46-.67.48-1.36.95-2.04 1.42-1.3.9 1.23-.79-.1.06-.44.29-.88.58-1.33.86-1.47.93-2.95 1.84-4.46 2.71-.65.38-1.31.78-1.98 1.12 1.22-.61-.14.08-.33.17-.54.29-1.08.57-1.62.85-1.5.77-3.01 1.51-4.54 2.22-.69.32-1.38.62-2.08.92-.42.18-.84.35-1.26.52-.5.2-.56.22-.18.07-.28.11-.56.21-.85.32a71.443 71.443 0 0 1-20.07 4.23c-13.71.87-28.61-1.6-39.39-10.7-4.92-4.15-8.75-9.63-10.69-15.78-1.99-6.3-1.96-13.42-.39-19.81.67-2.73 1.75-5.26 3.19-7.81.6-1.07-.33.46.1-.15.18-.26.35-.54.53-.8.22-.32.44-.63.67-.94.24-.32.7-1.33.05-.09.29-.54.88-1.02 1.28-1.48.96-1.09-1.1 1.05-.05.06.19-.19.38-.37.57-.55.56-.51.39-.36-.51.46.3-.2.64-.5.9-.75-1.41 1.35-.88.68-.4.33.43-.31 1.18-.58-.31.18.33-.17.64-.41.97-.61.11-.06.22-.13.33-.19.53-.3.44-.25-.28.15.14-.2.79-.4 1.01-.51.23-.11.46-.21.69-.31.23-.1.46-.2.7-.29-.5.19-.5.2-.02.02 2.83-.94 5.45-1.49 8.39-1.59 3.33-.12 6.48.25 9.64 1.3l-.63-.75v2.65c3.47-2.91 6.94-5.82 10.4-8.73-3.2 0-6.39.07-9.49.95-5.98 1.7-11.21 5.72-15.41 10.19-6.2 6.6-8.81 15.46-9.23 24.35-.42 8.96.99 18.41 6.71 25.62 5.76 7.27 14.98 10.43 23.97 11.1 10.27.76 20.27-1.82 29.29-6.7 9.98-5.4 19.04-12.47 27.18-20.36 15.22-14.76 27.48-32.21 38.99-49.92 5.8-8.92 11.36-18.01 16.7-27.22 4.89-8.42 9.53-16.99 14.46-25.38 1.04-1.78 2.1-3.54 3.16-5.31.29-.43.34-.87.14-1.33-.19-.22-.37-.44-.56-.66-.87-1.02-3.86 1.14-4.39 1.5-2.11 1.41-4.17 3.16-5.65 5.24-1.29 1.81-2.62 3.6-3.98 5.37-.3.39-.6.77-.9 1.16-.2.26-.41.52-.61.77-.04.06-.55.7-.16.21s-.12.15-.17.21l-.63.78c-.37.46-.74.91-1.12 1.36-1.46 1.76-2.94 3.5-4.49 5.19l-1.14 1.23c-.86.92.74-.74-.15.15-.78.79-1.55 1.58-2.35 2.35-.79.77-1.6 1.52-2.4 2.27-.99.93 1.01-.89-.01.01-.48.42-.97.84-1.46 1.26-.42.36-.86.7-1.29 1.05-.62.52.56-.43.55-.42-.19.13-.37.29-.56.43-.43.33-.87.65-1.31.97-.19.13-.38.27-.57.4-.72.51-.57.32.08-.03-.86.47-1.66 1.07-2.5 1.57-.43.26-.9.61-1.36.79.05-.02.87-.46.29-.16-.27.14-.53.28-.8.42-.49.25-.98.48-1.48.71-.21.09-.43.18-.64.28-.71.31.51-.18-.2.09-.99.37-2.01.69-3.03.95-3.77.97-7.91 1.17-11.7.17-3.54-.93-6.64-3.27-8.91-6.1-5.34-6.66-6.26-15.64-5.46-23.86.85-8.74 3.68-17.07 7.32-25.02 1.89-4.12 4.02-8.12 6.34-12-.01.01.39-.64.18-.3-.21.34.19-.31.18-.3l.87-1.38a123.923 123.923 0 0 1 5.58-8.01c.28-.37.56-.74.85-1.11.19-.25.38-.49.57-.73.39-.51-.14.17-.18.22.67-.86 1.38-1.69 2.08-2.52 1.44-1.7 2.92-3.36 4.44-4.98.16-.18.33-.35.49-.53.16-.16.87-.93.24-.26-.61.66.41-.42.58-.59.83-.84 1.66-1.67 2.51-2.5.73-.7 1.46-1.4 2.2-2.08.2-.18 1.35-1.23.5-.46-.82.73-.04.04.16-.14.23-.2.46-.4.69-.61.74-.65 1.5-1.29 2.26-1.92.41-.34.81-.67 1.22-1 .18-.14.35-.28.53-.42.09-.07 1.26-1 .36-.29-.84.66.42-.32.63-.48.46-.34.91-.68 1.37-1.02.46-.33.91-.66 1.38-.99.32-.23 1.2-.61 1.38-.95-.27.51-.9.59-.23.15.2-.13.39-.26.59-.38.46-.3.92-.59 1.38-.87.91-.57 1.84-1.12 2.77-1.65.2-.11.4-.22.59-.33.72-.42-.82.43-.09.04.4-.21.79-.42 1.19-.63.98-.51 1.98-.99 2.98-1.46 2.1-.97 3.16-1.39 5.38-2.08 1.78-.55 3.65-1.02 5.46-1.27 3.57-.48 7.36-.34 10.85.59 6.62 1.76 10.89 7.69 12.4 14.17.44 1.88.59 3.84.6 5.77-.05.46.16.71.63.75h.84c1.9 0 3.96-1.69 5.33-2.76 1.84-1.44 3.68-3.11 4.81-5.18 3.45-6.29 6.9-12.58 10.36-18.87-3.38 2.65-6.76 5.29-10.14 7.94h19.31c1.09 0 2.31-.71 3.18-1.24 1.52-.91 3.03-2.1 4.28-3.35.99-.98 2.11-2.06 2.68-3.35.21-.48.57-1.54-.36-1.54h-19.31c-1.9 0-3.96 1.69-5.33 2.76-1.84 1.44-3.68 3.11-4.81 5.18-3.45 6.29-6.9 12.58-10.36 18.87 3.38-2.65 6.76-5.29 10.14-7.94h-.84l.63.75c-.05-7.37-2.91-15.93-9.76-19.65-7.14-3.88-16.11-3.01-23.55-.51-9.94 3.34-19.05 9.15-27.27 15.57a154.593 154.593 0 0 0-22.47 21.53c-6.42 7.53-12.05 15.71-16.7 24.46-4.53 8.53-8.34 17.75-10.14 27.27-1.68 8.87-1.79 18.83 2.58 27 1.95 3.64 4.82 6.77 8.53 8.65 3.88 1.97 8.2 2.36 12.48 1.84 10.66-1.3 20.24-7.77 28.24-14.58 8.18-6.96 15.28-14.99 21.84-23.47 1.46-1.89 2.89-3.81 4.27-5.75-3.35 2.24-6.7 4.49-10.04 6.73.19.22.37.44.56.66.05-.44.09-.88.14-1.33-4.48 7.42-8.76 14.97-12.99 22.54-4.64 8.32-9.49 16.49-14.3 24.22-5.19 8.33-10.6 16.53-16.22 24.58-2.83 4.05-5.7 8.08-8.72 11.99-.34.44-.69.89-1.04 1.33-.2.25-.4.5-.59.75-.05.07-.55.69-.14.18.44-.55-.19.23-.29.36-.15.18-.3.37-.45.55l-1.2 1.47c-1.49 1.8-3.02 3.58-4.57 5.33-.71.8-1.44 1.6-2.16 2.39-.41.45-.83.9-1.25 1.34l-.47.5c-.61.64-.42.48.07-.07-1.56 1.75-3.31 3.38-5.01 4.98-.4.38-.81.75-1.21 1.13-.17.16-.35.31-.52.48 1.34-1.25.65-.59.35-.32-.93.81-1.86 1.62-2.81 2.4-.41.34-.82.68-1.24 1.01-.18.14-.36.28-.53.42 1.41-1.2.75-.58.41-.32-.89.68-1.78 1.35-2.69 2-.42.3-.84.6-1.27.9-.34.23-2.02 1.25-.41.29-.93.55-1.83 1.18-2.75 1.75-.87.53-1.75 1.03-2.62 1.55-.75.45.75-.38-.02.02-.22.11-.43.23-.65.34-.65.33-1.3.65-1.96.96-.81.38-2.24 1-2.73 1.19.42-.16-.48.17-.55.2-.22.08-.44.16-.66.23-.58.2-1.17.39-1.76.57-2.16.66-4.38 1.2-6.62 1.52-8.28 1.16-17.95.24-25.3-3.99-7.02-4.05-11.79-11.16-13.31-19.09-.85-4.42-.95-9-.61-13.48.29-3.85.99-7.96 2.33-11.31.31-.78.65-1.54 1.02-2.29.18-.36.37-.72.57-1.08.08-.15.17-.3.26-.45.55-.97-.35.49.02-.03.24-.34.47-.69.71-1.04.58-.83-.16.28-.25.3.06-.01.46-.53.46-.53.74-.86-1.02 1.01-.21.23-1.55 1.49-1.01.89-.63.57.9-.75-1.25.91-.54.42.57-.4-.8.5-.71.46.19-.09.4-.24.58-.36.82-.53-1.05.51.08-.02.37-.17 1.18-.45.35-.18.51-.17 1-.34 1.52-.49 1.76-.49 3.16-.63 5.02-.66.88-.01 1.77 0 2.65 0 2.09 0 4.6-2.07 6.07-3.33.9-.77 1.77-1.59 2.56-2.48.51-.57 1.77-2 1.77-2.92v-2.65c.05-.46-.16-.71-.63-.75-9.12-3.03-19.5-.76-27.45 4.31-9.36 5.97-17.4 14.72-20.47 25.57-2.53 8.94-1.78 19.22 2.62 27.46 4.46 8.36 12.12 14.12 20.81 17.56 19.15 7.6 41.54 4.19 59.56-4.82 19.89-9.96 37.24-24.91 51.23-42.12 6.69-8.24 13.02-16.81 18.77-25.74 2.85-4.42 5.62-8.89 8.31-13.41 1.04-1.74 2.06-3.5 3.05-5.27.54-.97 1.08-1.95 1.62-2.91.29-.51.58-1.01.87-1.52.13-.23.27-.46.41-.69.64-1.1-.48.74.15-.25.39-.62.78-1.24 1.21-1.83.15-.21.9-1.18.14-.22-.63.79-.32.41-.16.22-.46.54-3.33 3-3.51 3.13-1.53.73-3.06 1.45-4.59 2.18 3.59-.52 7.02-1.64 10.43-2.88 4.53-1.66 9.02-3.44 13.32-5.63 9.67-4.93 18.74-11.09 27.23-17.84 8.4-6.67 16.09-14.22 23.35-22.11 6.58-7.16 12.59-14.79 17.92-22.92 3.19-4.87 6.18-9.88 8.98-14.99 1.38-2.52 2.71-5.06 4.01-7.63.39-.77 1.13-1.76.8-2.64-.05-.14-.16-.26-.22-.39-.27-.54-.6-1.06-.9-1.59-.68-1.21-4.7 1.67-5.1 1.97-2.07 1.53-4.39 3.41-5.55 5.76-1.79 3.62-3.7 7.19-5.73 10.68-.52.89-1.04 1.77-1.58 2.65-.27.44-.07.12-.02.03-.12.2-.25.41-.38.61-.29.48-.59.95-.89 1.43-1.12 1.78-2.27 3.54-3.45 5.28a201.719 201.719 0 0 1-8.32 11.41c-.2.25-.39.5-.59.75-.05.07-.55.69-.14.18.41-.52-.08.1-.14.17-.15.18-.3.37-.45.55-.35.43-.7.86-1.05 1.28-1.3 1.58-2.62 3.13-3.97 4.67-1.34 1.53-2.7 3.03-4.09 4.51l-.96 1.02c-.8.85.07-.09.2-.21-.17.15-.33.34-.49.5-.7.72-1.41 1.44-2.12 2.16a175.22 175.22 0 0 1-4.38 4.24c-.4.38-.81.75-1.22 1.13-.17.16-.36.31-.52.48-.02.02 1.12-1 .51-.46-.76.67-1.53 1.35-2.3 2.01-1.53 1.32-3.1 2.6-4.68 3.86-.16.13-.82.64.01 0 .86-.68.04-.04-.18.13-.37.28-.73.56-1.1.84-.8.6-1.6 1.19-2.41 1.78-.81.58-1.62 1.15-2.44 1.72-.38.26-.76.51-1.13.77-.61.42.45-.3.46-.3-.26.15-.51.34-.76.5-1.68 1.1-3.39 2.17-5.12 3.2-.56.33-1.13.66-1.7.99-.21.12-.43.24-.64.36-.1.05-.99.56-.43.24.56-.31-.15.08-.22.12-.28.15-.57.3-.85.45-.57.3-1.14.59-1.71.88-2.04 1.03-4.12 1.99-6.23 2.89-.5.21-1.01.42-1.51.63.01 0-.7.28-.32.13.29-.12-.47.18-.54.21-1.08.41-2.16.8-3.25 1.17-2.15.73-4.34 1.38-6.54 1.96.4.47.79.95 1.19 1.42 8.32-14.32 16.46-28.75 24.42-43.28 7.84-14.32 15.56-28.69 23.83-42.77 4.69-7.99 9.02-15.12 13.85-22.84.23-.36 1.25-1.72.75-2.32-.49-.58-2.04.15-2.41.33-1.5.73-2.9 1.71-4.16 2.79-1.2 1.01-2.56 2.17-3.43 3.56z" class="st0"/><path d="M1038.66 452.95c-4.34.04-8.54 1.34-12.41 3.24-5.36 2.63-10.25 6.21-14.74 10.12-8.09 7.05-15.26 15.08-21.47 23.83-5.83 8.21-10.84 17.03-14.86 26.27-4.01 9.21-7.24 18.89-8.35 28.91-.51 4.56-.75 9.26.32 13.76.89 3.77 2.98 7.65 6.59 9.43 3.96 1.95 8 1.02 11.89-.59 5.37-2.22 10.23-5.68 14.77-9.26 8.77-6.91 16.31-15.33 23.21-24.07 6.43-8.13 12.07-16.91 16.63-26.22 4.51-9.19 8.26-19.1 9.9-29.23.79-4.83 1.48-10.22.57-15.08-.73-3.91-2.37-8.11-6.19-9.88-1.87-.88-3.81-1.21-5.86-1.23-1.08-.01-2.32.72-3.18 1.24-1.52.91-3.03 2.1-4.28 3.35-.99.98-2.11 2.06-2.68 3.35-.22.49-.57 1.53.36 1.54 1.73.02 3.42.24 5.04.88l-.51-.21c3.57 1.54 5.31 5.04 6.2 8.66l-.12-.54c.87 3.96.54 8.16.11 12.15-.46 4.21-1.29 8.37-2.46 12.43-2.24 7.86-5.5 15.47-9.33 22.68a135.484 135.484 0 0 1-3.77 6.65c-.27.44-.05.08 0-.01-.12.2-.24.39-.36.59-.57.91-1.15 1.82-1.74 2.72-2.3 3.51-4.76 6.89-7.35 10.18-.15.19-.3.38-.46.58.05-.06.55-.69.15-.19-.3.37-.6.75-.91 1.12-.7.85-1.4 1.7-2.12 2.54-1.32 1.56-2.68 3.09-4.06 4.6-.3.32-.6.65-.9.97-.2.21-.41.42-.6.63-.01.01.93-.96.42-.44-.7.71-1.4 1.43-2.12 2.14-.75.73-1.5 1.46-2.27 2.17-.17.16-.35.32-.52.48-.59.55.55-.5.53-.48-.42.32-.8.7-1.2 1.04-.45.38-.9.76-1.36 1.13-.17.14-.34.27-.51.41-.76.62.25-.18.47-.36-.78.66-1.65 1.24-2.49 1.82-.16.11-.33.22-.49.34 1.44-1.06.62-.42.26-.19-.38.24-.75.48-1.14.71-.21.12-.41.25-.62.37-.48.28-.81.52-.13.1-.42.26-.9.47-1.34.69-.48.23-.97.44-1.46.66-.47.22.15-.06.21-.08-.22.08-.45.16-.67.24a14.37 14.37 0 0 1-1.74.47c-.06.01-.66.12-.32.07.34-.05-.12.01-.15.01-.23.01-.45.03-.68.04-.41.01-.82-.01-1.23-.05-.94-.1-1.84-.34-2.71-.69l.51.21c-3.88-1.73-6.09-5.66-7.06-9.64l.12.54c-.81-3.65-.7-7.43-.4-11.14.31-3.79.93-7.56 1.8-11.26 1.86-7.93 4.88-15.56 8.4-22.9 1.72-3.58 3.59-7.09 5.6-10.52.26-.45.53-.9.8-1.35-.33.55.23-.38.33-.53.55-.88 1.11-1.76 1.68-2.64 1.12-1.71 2.28-3.4 3.47-5.07 1.16-1.61 2.35-3.2 3.57-4.76.14-.18.27-.36.42-.53-.76.91-.23.28-.07.09.28-.34.56-.69.85-1.03.65-.79 1.32-1.57 1.99-2.34.62-.7 1.24-1.4 1.88-2.09.29-.31.59-.62.87-.94.49-.53-.43.47-.44.45-.03-.1.67-.69.74-.76 1.26-1.29 2.56-2.54 3.88-3.76.21-.2.93-.84.06-.06-.87.79-.12.11.07-.05.36-.31.71-.62 1.07-.93.47-.4.96-.8 1.44-1.19.16-.13.83-.65.01-.01-.85.67.02 0 .19-.14.49-.36.99-.7 1.48-1.06.59-.44-.49.32-.49.32.25-.14.49-.32.73-.47.48-.3.96-.58 1.44-.87.12-.07.74-.4.08-.05-.69.37.12-.06.25-.13.86-.44 1.74-.84 2.64-1.21-.84.35.33-.1.65-.21.4-.13.79-.25 1.19-.36 1.79-.49 2.73-.63 4.65-.64 1.1-.01 2.29-.71 3.18-1.24 1.52-.91 3.03-2.1 4.28-3.35.99-.98 2.11-2.06 2.68-3.35.27-.48.63-1.55-.31-1.54zM1140.76 459.56l-12.03 20.73c-6.38 11-12.77 21.99-19.15 32.99-1.45 2.5-2.91 5.01-4.36 7.51-.29.43-.34.87-.14 1.33.19.22.37.44.56.66.87 1.03 3.86-1.14 4.39-1.5 2.09-1.4 4.2-3.16 5.65-5.24 1.64-2.35 3.34-4.65 5.09-6.93 1-1.31 2.02-2.61 3.05-3.9.14-.18.66-.84-.02.02.3-.38.61-.76.91-1.13.56-.7 1.13-1.39 1.7-2.08 4.34-5.27 8.87-10.39 13.53-15.38.59-.63 1.18-1.26 1.78-1.89.22-.23.44-.46.65-.69 1.13-1.19-1 1.03.14-.15 1.22-1.26 2.44-2.52 3.67-3.76 2.5-2.53 5.03-5.03 7.62-7.48.59-.56 1.18-1.11 1.77-1.66.35-.33.7-.65 1.06-.97l.35-.32c.58-.53.47-.43-.34.3.4-.59 1.22-1.09 1.75-1.56.69-.61 1.39-1.21 2.09-1.81 1.14-.97 2.3-1.93 3.46-2.88 1.06-.85 2.15-1.67 3.11-2.63 1.4-1.4 2.41-2.85 3.25-4.62.13-.26.26-.53.39-.79.09-.17.99-1.59.42-.77.14-.2.29-.41.43-.62.37-.49.29-.4-.25.29a18.89 18.89 0 0 1-5.31 4.2c.82-.39-.71.06-.12.04.35-.01.78-.22 1.13-.28-.47.09.79-.09.67-.08.42-.04.85-.05 1.27-.06 3.61-.08 7.23.2 10.81.66.38-1.22.77-2.44 1.15-3.67-4.57 5.44-8.79 11.52-11.82 17.96-2.81 5.97-4.17 12.8-3.53 19.4.53 5.48 2.76 11.2 8.25 13.33 2.84 1.11 6.21.65 9.07-.15 4.23-1.18 8.1-3.53 11.71-5.97 7.48-5.08 13.9-11.72 20.11-18.25-3.05 1.87-6.09 3.73-9.14 5.6l1.68 1.32 1.65-3.45c-1.17 1.39-2.38 2.75-3.6 4.09-.72.79-1.45 1.57-2.18 2.34-1.12 1.19 1-1-.12.12-.32.32-.64.65-.97.97-.44.43-.88.85-1.33 1.27-.35.33-1.52 1.28.03-.01-.71.59-1.39 1.22-2.1 1.81-.24.2-.48.39-.72.59-.61.49-.48.39.4-.3-.38.18-.73.55-1.06.8-.35.25-.75.49-1.08.76 1.37-1.14.15-.11-.25.13-.43.27-.88.52-1.31.78-1.02.6.9-.44-.26.13-.86.43-1.72.86-2.61 1.23-.29.12-.29.12-.01.01-.29.11-.58.21-.88.3-.44.14-.88.27-1.32.39-.83.22-1.68.4-2.53.49-3.4.39-6.91 0-10.1-1.27l.51.21c-6.13-2.59-9.88-8.25-11.38-14.57l.12.54c-1.62-7.2-1.28-15.31 1.93-21.96.29-.43.34-.87.14-1.33-.19-.22-.37-.44-.56-.66-.49-.58-2.03.15-2.41.33-1.51.73-2.86 1.74-4.16 2.79-13.45 10.89-25.4 23.68-36.58 36.85-5.97 7.03-11.73 14.25-17.34 21.58-2.47 3.22-4.97 6.43-7.21 9.82-2.4 3.62-4.6 7.39-6.65 11.21-4.96 9.24-9.18 18.87-12.71 28.75 3.38-2.65 6.76-5.29 10.14-7.94h-18.2l.36 1.54c7.94-14.95 15.91-29.89 23.9-44.81a8110.69 8110.69 0 0 1 37.4-69.05c-3.38 2.65-6.76 5.29-10.14 7.94h17.07c1.09 0 2.31-.71 3.18-1.24 1.52-.91 3.03-2.1 4.28-3.35.99-.98 2.11-2.06 2.68-3.35.21-.48.57-1.54-.36-1.54h-17.07c-1.9 0-3.96 1.69-5.33 2.76-1.84 1.44-3.68 3.11-4.81 5.18-8.04 14.67-16.03 29.37-23.98 44.09-7.99 14.8-15.93 29.62-23.85 44.46-4.5 8.43-8.99 16.87-13.48 25.31-.23.43-.53 1.54.36 1.54h18.2c1.9 0 3.96-1.69 5.33-2.76.96-.75 1.87-1.56 2.72-2.44.72-.75 1.74-1.74 2.1-2.74 3.04-8.53 6.62-16.86 10.72-24.93 1-1.96 2.02-3.9 3.09-5.82.5-.9 1.01-1.79 1.52-2.68.21-.37.43-.73.65-1.1.14-.24.29-.48.43-.72-.24.39-.15.24.04-.06 1.98-3.18 4.15-6.19 6.4-9.17 2.74-3.63 5.52-7.24 8.35-10.81.34-.42.67-.85 1.01-1.27.4-.51-.15.19-.19.24.14-.18.29-.36.43-.54.71-.88 1.42-1.77 2.14-2.65 1.3-1.6 2.62-3.2 3.94-4.79 5.27-6.31 10.62-12.72 16.45-18.51-.01.01-.87.91-.36.38l.8-.83c.42-.44.85-.88 1.28-1.31.83-.85 1.68-1.7 2.52-2.54 1.62-1.61 3.25-3.19 4.92-4.75.74-.7 1.49-1.39 2.25-2.07 1.24-1.12-1.12 1 .08-.07.39-.35.78-.69 1.17-1.03 1.55-1.35 3.12-2.67 4.71-3.97l-6.57 3.12c.19.22.37.44.56.66.05-.44.09-.88.14-1.33-2.89 6-3.79 12.69-3.14 19.29.53 5.37 2.17 10.81 5.87 14.87 3.8 4.18 9.29 6.21 14.89 6.1 8.02-.16 15.53-4.3 21.83-8.98 7.22-5.36 13.56-11.82 19.37-18.67.3-.35 2.52-2.77 1.65-3.45l-1.68-1.32c-.97-.77-2.91.56-3.69 1.03-2.05 1.23-3.8 2.84-5.45 4.57-.94.99.8-.82.21-.22-.24.25-.48.49-.72.74-.51.52-1.01 1.04-1.52 1.55a231.86 231.86 0 0 1-3.52 3.49c-.57.54-1.14 1.08-1.72 1.61-.17.16-.35.32-.52.48.23-.21.46-.42.69-.62-.31.24-.59.52-.88.78-.65.57-1.31 1.12-1.97 1.67-.23.19-.49.37-.71.58 1.46-1.37.47-.37.07-.07-.3.22-.6.42-.9.64-.69.51 1.38-.86.13-.09-.6.37-1.21.84-1.86 1.11.66-.28.52-.28-.05.02-.33.17-.67.34-1 .49.01-.01-1.07.45-.75.33.38-.14-.66.21-.75.24-2.56.78-5.32.99-7.86.04l.51.21c-3.93-1.65-6.18-5.52-7.14-9.51l.12.54c-1.36-6.14-.66-13.12 1.67-18.94a39.26 39.26 0 0 1 2.16-4.48c.46-.83.94-1.66 1.42-2.48.05-.09.63-1.04.41-.69-.14.23-.08.14.18-.28l.36-.57c.89-1.41 1.82-2.79 2.8-4.15.48-.67.98-1.33 1.48-1.98.11-.14.86-1.04.29-.38-.58.69.45-.53.55-.65.4-.48 2.92-3.44 1.15-3.67-2.48-.31-4.96-.54-7.45-.62-2.53-.08-5.14-.15-7.61.49-4.04 1.04-7.76 4.05-10.48 7.09-2 2.24-3.56 4.85-4.75 7.6 1.36-1.53 2.72-3.07 4.07-4.6-8.76 6.92-16.84 14.65-24.62 22.65-7.66 7.88-15.04 16.02-21.93 24.58-3.58 4.45-7.11 8.95-10.38 13.64 3.35-2.24 6.7-4.49 10.04-6.73-.19-.22-.37-.44-.56-.66-.05.44-.09.88-.14 1.33l12.03-20.73c6.38-11 12.77-21.99 19.15-32.99 1.45-2.5 2.91-5.01 4.36-7.51.34-.59.44-1.39-.36-1.54-.9-.17-2.54.84-3.18 1.24-2.71 1.66-5.34 3.89-6.96 6.67z" class="st0"/><path d="M1283.04 461.1h18.19l-.36-1.54c-9.58 15.92-19.14 31.87-28.31 48.04-4.29 7.57-8.52 15.18-12.5 22.92-3.69 7.17-7.4 14.49-10.07 22.12-1.16 3.32-2.25 6.76-2.51 10.29-.21 2.79.05 6.27 2.04 8.43 1.86 2.02 4.94 2.5 7.54 2.17 4.07-.51 7.77-2.3 11.29-4.32 8.13-4.67 15.37-11.15 21.98-17.75 6.64-6.63 12.77-13.72 18.63-21.05 11.52-14.43 21.82-29.8 31.14-45.72 1.17-2 2.33-4.02 3.47-6.04-3.38 2.65-6.76 5.29-10.14 7.94l1.68.66-.36-1.54a449.74 449.74 0 0 1-6.13 10.63l-1.62 2.7c-.28.46-.55.91-.83 1.37.05-.09.28-.45.01-.01l-.6.99c-1.15 1.88-2.32 3.75-3.5 5.61-4.85 7.68-9.86 15.25-15.23 22.58a332.472 332.472 0 0 1-5.84 7.72l-.99 1.26-.42.54c-.67.85.35-.42-.09.11-2.83 3.49-5.71 6.95-8.74 10.28-.68.74-1.36 1.48-2.05 2.22-.21.22-.42.44-.63.67-.51.54.38-.39.38-.4-.38.46-.84.87-1.26 1.29-1.49 1.52-3.02 3-4.57 4.46-.31.29-.63.59-.95.88-1.3 1.19.92-.8-.03.03-.78.69-1.57 1.38-2.36 2.06-.74.63-1.49 1.25-2.24 1.86-.19.15-.4.3-.58.46.13-.12 1.34-1.01.33-.27-.51.37-1.01.74-1.52 1.1l-.57.39c-.73.51 1.36-.86.09-.07-.5.31-.99.62-1.49.91-.18.11-.37.21-.56.32-.69.41.88-.44.17-.1-.49.24-.97.49-1.46.73-.48.22-.97.42-1.45.64-.63.28.65-.22 0 0-.24.08-.48.17-.71.25-.93.32-1.87.59-2.83.8-1.69.38-3.22.51-5.21.43-2.05-.08-4.07-.43-5.98-1.18l.51.21c-4.42-1.85-7.09-5.99-8.17-10.55l.12.54c-1.64-7.7 1.24-15.4 3.44-22.67l-.12-.54c-.19-.11-.37-.22-.56-.33-1.29-.76-3.43.86-4.39 1.5-2.16 1.44-4.04 3.2-5.65 5.24-.15.19-.31.37-.45.57-.01.01.73-.9.33-.41-.28.35-.56.7-.84 1.04-.64.79-1.29 1.57-1.95 2.35a255.18 255.18 0 0 1-4.3 4.97c-.73.82-1.46 1.64-2.2 2.45-.36.39-.73.78-1.09 1.17-.5.54.38-.39.38-.4-.28.24-.53.55-.79.81-.75.76-1.5 1.5-2.27 2.24-.38.37-.77.73-1.16 1.1-.22.21-.45.41-.67.62-.71.66.11-.15.38-.33-.85.57-1.62 1.43-2.41 2.1-.41.35-.83.7-1.25 1.04-.18.15-.36.29-.54.44-.1.08-1.32 1.05-.35.29.94-.75-.5.37-.73.54-.43.32-.86.63-1.29.94-.43.31-.87.6-1.3.91-.35.24-.99.46.29-.19-.26.13-.5.33-.75.49-.87.56-1.75 1.1-2.65 1.62-.25.15-.51.29-.76.44-.1.06-.76.4-.13.08.65-.33-.08.04-.18.09-.36.18-.71.37-1.08.54-.49.24-1 .46-1.5.68-.08.04-.8.32-.19.09-.21.08-.42.16-.63.23-1.02.36-2.06.66-3.12.9-3.77.84-8.06.52-11.69-.94l.51.21c-5.99-2.57-8.71-8.76-10.14-14.77l.12.54c-1.97-8.77-.68-18.02 1.83-26.54 2.72-9.27 7.13-18.14 12.03-26.43.15-.26.31-.51.46-.77l.16-.27c-.25.41.23-.38.28-.46.16-.25.32-.51.48-.76a175.9 175.9 0 0 1 2.07-3.21c1.33-2.01 2.72-3.99 4.15-5.93.72-.98 1.45-1.95 2.19-2.9.33-.42.66-.84.99-1.27.51-.66-.58.71-.05.06.24-.29.48-.59.72-.89 1.52-1.85 3.08-3.67 4.69-5.44.4-.44.8-.87 1.2-1.3.2-.21.41-.42.6-.64-.1.12-1.06 1.09-.26.27.81-.83 1.62-1.65 2.45-2.46.82-.8 1.65-1.59 2.49-2.36.21-.19.41-.39.63-.58-.08.07-1.35 1.19-.44.4.42-.37.85-.75 1.27-1.11.85-.73 1.71-1.45 2.58-2.15.43-.35.86-.71 1.3-1.04-.08.06-1.44 1.11-.49.39.28-.21.55-.42.83-.63.91-.68 1.83-1.34 2.75-1.99.97-.69-.07.03-.22.14.24-.19.53-.35.79-.51.58-.37 1.17-.73 1.76-1.09l.78-.45c.24-.14 1.16-.72.08-.06.55-.34 1.16-.61 1.73-.89.57-.28 1.14-.54 1.72-.8.25-.11.51-.22.76-.33.77-.33-.23.07.24-.1 2.18-.8 4.4-1.46 6.68-1.86.75-.13 1.78-.24 2.8-.3 1.22-.07 2.44-.06 3.66.02 2.54.16 5.03.67 7.4 1.61l-.51-.21c3.74 1.57 6.85 4.07 9.15 7.42 2.4 3.49 3.69 7.64 4.63 11.74l-.12-.54c.1.45.19.9.28 1.35-.05.46.16.71.63.75h.56c1.9 0 3.96-1.69 5.33-2.76 1.76-1.38 3.83-3.11 4.81-5.18 2.69-5.68 5.38-11.36 8.06-17.05.39-.83.78-1.65 1.17-2.48 1.29-2.72-2.69-.83-3.55-.3-2.53 1.57-5.64 3.9-6.96 6.7-2.69 5.68-5.38 11.36-8.06 17.05-.39.83-.78 1.65-1.17 2.48 3.38-2.65 6.76-5.29 10.14-7.94h-.56l.63.75c-.89-4.45-2.12-9.06-4.58-12.93-2.34-3.68-5.6-6.41-9.61-8.11-8.04-3.4-17.11-1.78-24.91 1.44-9.8 4.04-18.38 10.94-26.18 17.99-7.37 6.66-13.96 14.16-19.86 22.13a154.297 154.297 0 0 0-14.71 24.21c-4.08 8.37-7.49 17.23-8.97 26.46-1.36 8.47-1 17.41 2.82 25.24 1.49 3.07 3.55 5.68 6.64 7.25 3.37 1.72 7.23 2.28 10.98 1.97 5.27-.45 10.06-2.49 14.64-5.01 4.85-2.68 9.38-5.89 13.71-9.34 8.09-6.44 15.18-14.02 21.81-21.93 1.47-1.76 2.91-3.54 4.32-5.34-3.35 2.24-6.7 4.49-10.04 6.73.19.11.37.22.56.33l-.12-.54c-1.77 5.86-3.88 11.78-3.92 17.97-.03 4.95 1.55 10.47 5.44 13.79 3.56 3.04 8.74 3.78 13.25 3.28 5.79-.64 11.18-3.05 16.09-6.11 6.02-3.75 11.42-8.4 16.6-13.22 4.63-4.31 9-8.9 13.16-13.66 8.3-9.5 15.9-19.65 22.94-30.1a491.71 491.71 0 0 0 21.55-35.07c.42-.75.37-1.25-.36-1.54l-1.68-.66c-.46-.18-1.52.37-1.91.54-1.24.57-2.36 1.38-3.42 2.21-1.85 1.45-3.65 3.12-4.81 5.18-8.16 14.45-17.13 28.35-27.37 41.98-1.25 1.67-2.52 3.32-3.8 4.97-.6.77-1.21 1.54-1.82 2.31a33.902 33.902 0 0 1-.35.43c-.32.4-.65.8-.97 1.2-2.42 2.97-4.9 5.89-7.46 8.74-.71.79-1.42 1.58-2.14 2.36-.32.35-.65.7-.98 1.05-.22.23-.43.46-.65.69-.56.6-.1.09.2-.21-1.45 1.4-2.82 2.89-4.27 4.29-.66.64-1.33 1.28-2.01 1.9-.3.28-.61.56-.91.84-.17.16-.74.67.09-.08.96-.86-.07.06-.21.18a99.294 99.294 0 0 1-3.84 3.23c-.19.15-.38.32-.58.46.12-.09 1.39-1.07.61-.48-.42.31-.83.63-1.25.94-.45.33-.9.65-1.36.97-.18.12-.42.24-.57.39.46-.46.9-.59.11-.08-.42.27-.84.53-1.27.78-.18.1-.35.21-.53.31-.73.42-.49.09.06-.03-.79.17-1.73.83-2.47 1.17-.47.21.27-.1.3-.11-.21.07-.41.15-.61.22-.39.13-.79.25-1.19.36-.33.09-.67.16-1 .23-.09.02-.68.11-.28.05.37-.05-.2.01-.26.02-1.48.09-2.95-.02-4.34-.54l.51.21c-2.16-.92-3.33-2.75-3.84-4.98l.12.54c-1.24-6.22 1.45-12.83 3.83-18.41 2.92-6.85 6.24-13.52 9.71-20.11 7.59-14.41 15.8-28.48 24.09-42.5 4.97-8.41 9.97-16.79 15-25.16.26-.43.51-1.54-.36-1.54h-18.19c-1.09 0-2.31.71-3.18 1.24-1.52.91-3.03 2.1-4.28 3.35-.99.98-2.11 2.06-2.68 3.35-.19.38-.55 1.44.38 1.44z" class="st0"/><path d="M1190.88 553.03c.02 4.05.47 8.5 2.62 12.03 2.04 3.35 5.64 4.95 9.5 4.51 5.37-.61 10.22-3.45 14.64-6.4 4.86-3.24 9.35-6.99 13.61-10.98 7.89-7.39 14.99-15.78 21.18-24.63 5.95-8.5 11.02-17.66 14.98-27.26 3.87-9.4 6.99-19.33 7.27-29.56.11-4.1-.28-8.57-2.57-12.1-2.23-3.43-6.17-5.57-10.24-5.69-4.18-.12-8.37 1.27-12.06 3.11-5.39 2.67-10.31 6.29-14.82 10.25-8.13 7.13-15.26 15.3-21.4 24.2-5.6 8.13-10.36 16.84-14.23 25.92-4.04 9.48-7.16 19.42-8.14 29.72-.22 2.29-.33 4.58-.34 6.88-.01 2.21 4.69-1.04 5.22-1.43 1.45-1.07 2.87-2.25 4.04-3.63.64-.75 1.77-1.87 1.77-2.92.05-16.04 5.53-31.36 12.86-45.44.89-1.71 1.81-3.4 2.77-5.06.47-.83.96-1.65 1.45-2.47.01-.01.38-.63.15-.25s.15-.24.16-.25c.27-.43.54-.87.81-1.3 2.15-3.39 4.45-6.68 6.89-9.86l.84-1.08c.67-.87-.47.57.22-.27.65-.8 1.31-1.6 1.99-2.39 1.22-1.42 2.5-2.78 3.76-4.17-1.24 1.37-.16.17.15-.14.29-.3.59-.59.88-.88.68-.67 1.38-1.34 2.08-1.99.21-.2 1.28-1.16.35-.33-.92.83.14-.12.36-.31.76-.66 1.54-1.29 2.32-1.94.62-.52-.54.41-.53.41.26-.16.5-.38.75-.57.49-.36.99-.71 1.49-1.06.15-.1.79-.55.03-.02-.79.55.04-.02.21-.12.47-.3.96-.57 1.44-.86.54-.33-.35.2-.39.21.21-.03.51-.27.71-.37.4-.2.81-.4 1.22-.58.17-.08.35-.15.52-.23 1.09-.49-.52.17.12-.06.39-.14.78-.28 1.18-.41.81-.26 1.64-.46 2.48-.63.16-.03.32-.06.49-.09-.34.05-.02 0 .14-.01.42-.04.84-.08 1.27-.09 1.84-.07 3.64.22 5.36.91l-.51-.21c3.94 1.75 6.37 5.23 7.33 9.35l-.12-.54c.78 3.65.61 7.45.23 11.14-.41 4.06-1.23 8.07-2.35 12-2.27 7.97-5.6 15.69-9.44 23.02-3.76 7.16-7.72 13.25-12.89 19.9-.35.45-.7.89-1.05 1.33.6-.77-.05.06-.29.36-.69.85-1.39 1.7-2.1 2.54-1.33 1.56-2.68 3.1-4.07 4.61-.3.33-.6.65-.91.97-.15.16-.31.32-.45.48-.01.01.92-.95.41-.43-.73.74-1.45 1.48-2.19 2.21s-1.49 1.44-2.25 2.15c-.17.16-.35.31-.52.47-.58.55.55-.49.54-.48-.49.25-.94.83-1.36 1.19-.83.71-1.68 1.4-2.52 2.09-.62.51.7-.55.64-.5-.2.18-.44.34-.66.51-.43.33-.87.65-1.32.97-.38.27-.76.53-1.14.8-.59.42.64-.42.6-.39-.22.13-.43.28-.65.42-.54.35-1.09.67-1.63 1-.1.06-.78.38-.16.1.64-.29-.22.11-.34.17-.5.25-1.02.46-1.51.71-.46.23.09-.02.16-.05-.24.09-.48.18-.72.26-.69.23-1.88.55-2.32.62-1.32.22-3.32.06-4.84-.51l.51.21c-3.55-1.52-5.29-5.13-6.1-8.71l.12.54c-.45-2.16-.61-4.36-.62-6.57-.01-2.21-4.68 1.03-5.22 1.43-1.45 1.07-2.87 2.25-4.04 3.63-.66.72-1.81 1.85-1.81 2.89zM1295.42 567.02c7.39-14.67 15.35-29.03 23.24-43.43 8.37-15.27 16.77-30.52 25.01-45.85 4.37-8.13 8.64-16.32 12.77-24.58-3.38 2.65-6.76 5.29-10.14 7.94h17.07l-.36-1.54c-4.16 6.92-8.31 13.85-12.47 20.77-6.63 11.05-13.26 22.09-19.89 33.14l-4.59 7.65c-.29.43-.34.87-.14 1.33.19.22.37.44.56.66.87 1.02 3.86-1.14 4.39-1.5 2.09-1.4 4.2-3.16 5.65-5.24 3.59-5.14 7.15-10.31 10.69-15.49 2.04-2.98 4.07-5.97 6.2-8.89 1.01-1.38 2.03-2.74 3.07-4.09.47-.62.95-1.23 1.43-1.84.12-.15 1.09-1.38.26-.33.34-.43.69-.85 1.03-1.27 2.22-2.73 4.51-5.42 6.87-8.03.61-.67 1.2-1.42 1.88-2.02-1.13 1-.48.5-.22.23.32-.32.63-.65.95-.97 1.27-1.28 2.56-2.53 3.88-3.74.33-.3 1.55-1.31-.07.06.23-.19.44-.39.66-.59.66-.58 1.33-1.15 2.01-1.72.56-.47 1.12-.93 1.69-1.38.39-.31 1.64-1.08-.11.08.48-.32.92-.71 1.38-1.05.58-.43 1.16-.85 1.74-1.27.36-.26.73-.51 1.09-.77 1.33-.94-1.21.75.16-.1.64-.39 1.28-.88 1.97-1.18-1.25.54.1-.05.31-.15.46-.23.92-.46 1.39-.68.33-.15.66-.3 1-.44.26-.11.53-.22.8-.33-.42.16-.38.15.12-.04.8-.27 1.6-.55 2.41-.78 1.6-.45 3.24-.8 4.86-.97 3.43-.35 6.88-.2 10.09 1.14l-.51-.21c4.2 1.88 6.98 5.35 8.06 9.8l-.12-.54c1.6 7.28-1.08 13.86-4.14 20.36-1.79 3.8-3.78 7.5-5.86 11.15-1.02 1.8-2.06 3.58-3.12 5.36-1.16 1.95-1.62 2.69-2.81 4.61-2.22 3.58-4.43 7.17-6.5 10.84-.29.43-.34.87-.14 1.33.19.22.37.44.56.66.94 1.12 4.5-1.53 5.1-1.97 2.16-1.59 4.17-3.44 5.55-5.76.21-.36.42-.71.64-1.07.04-.06.75-1.24.27-.44.37-.61.74-1.21 1.12-1.81.93-1.49 1.88-2.97 2.85-4.44 1.88-2.85 3.81-5.67 5.79-8.45 2.09-2.93 4.21-5.83 6.42-8.68.53-.68 1.05-1.36 1.59-2.03-.84 1.04.14-.17.26-.32.2-.24.39-.48.59-.72 1.18-1.44 2.37-2.86 3.59-4.27 1.11-1.28 2.23-2.55 3.37-3.81.52-.57 1.04-1.13 1.56-1.7.31-.34.63-.67.94-1.01.21-.23 1.29-1.43.1-.11 1.16-1.29 2.45-2.5 3.7-3.71.56-.54 1.13-1.07 1.7-1.6l.34-.31c.58-.52.45-.42-.37.32.49-.31.93-.83 1.37-1.21 1.13-.98 2.29-1.93 3.45-2.88 1.24-1.01-1.35 1.03-.09.06.35-.27.7-.53 1.05-.8.69-.52 1.4-1.03 2.1-1.54.28-.2 1.43-1.28 1.76-1.22-.23.16-.47.31-.7.47l.71-.47c.41-.27.82-.53 1.24-.78.27-.17.55-.33.82-.49.16-.09 1.52-.91.36-.22.78-.46 1.62-.84 2.44-1.21.4-.18.81-.35 1.21-.53.5-.2.54-.22.12-.06.27-.1.53-.2.8-.29.79-.28 1.58-.52 2.39-.74 1.46-.39 2.86-.67 4.28-.79 3.28-.28 6.66-.03 9.74 1.18l-.51-.21c4.49 1.9 7.15 5.87 8.23 10.52l-.12-.54c1.59 7.43-.58 14.34-3.64 21.07-1.72 3.77-3.62 7.46-5.65 11.07-1.04 1.86-2.12 3.69-3.21 5.52-.52.88-1.05 1.75-1.58 2.63.01-.02-.39.64-.19.31.23-.38-.28.45-.32.52-.29.47-.58.95-.88 1.42-4.54 7.33-9.33 14.5-13.89 21.83-4.35 6.99-8.98 14.2-11.85 21.96-1.21 3.26-2.27 6.82-1.75 10.33.53 3.55 2.61 6.57 6.29 7.33 3.05.62 6.61-.39 9.44-1.48 4.56-1.75 8.74-4.26 12.74-7.05 13.98-9.75 25.65-22.76 36.23-36.01 10.71-13.4 20.45-27.55 29.66-42.01 1.2-1.88 2.38-3.76 3.56-5.65-3.35 2.24-6.7 4.49-10.04 6.73.75.44 1.49.88 2.24 1.32.25-.77.5-1.55.75-2.32-9.53 15.38-19.56 30.53-30.58 44.89-.61.8-1.23 1.59-1.85 2.39l-.99 1.26c-.19.24-.38.48-.56.71-.08.1-.71.86-.25.32.48-.57-.14.17-.25.31-.14.17-.28.35-.42.52-.33.4-.65.8-.98 1.21-.69.85-1.39 1.69-2.09 2.53-2.64 3.15-5.34 6.26-8.15 9.27-.36.38-.87.78-1.15 1.22.01-.02.87-.89.35-.37-.16.17-.33.34-.49.51-.8.82-1.62 1.64-2.44 2.44-.74.73-1.49 1.45-2.25 2.16-.37.35-.75.69-1.12 1.04-.17.15-.75.68.06-.05.91-.82-.05.04-.26.22-1.44 1.26-2.92 2.47-4.4 3.67 1.75-1.42.5-.39.08-.07l-1.08.81c-.36.26-.72.52-1.08.77-.15.11-.31.22-.46.32-.08.05-1.1.74-.31.22.71-.47.02-.02-.1.06-.33.21-.66.42-1 .63-.52.32-1.06.62-1.58.94-.56.33.25-.13.3-.16-.29.2-.66.35-.97.5-.51.26-1.02.5-1.54.73-.19.09-.38.17-.57.25.02-.01-1.1.45-.59.25.46-.18-.16.06-.21.07-.31.11-.62.22-.93.32-.96.31-1.93.58-2.92.79-3.34.71-7.65.52-11.17-.92l.51.21c-5.04-2.2-7.88-7.11-9.12-12.29l.12.54c-1.89-8.48.55-16.42 4.1-24.09 4.07-8.78 8.74-16.19 13.94-24.08 5.29-8.01 10.77-15.9 15.78-24.1 2.27-3.73 4.52-7.52 6.39-11.47 1.58-3.36 2.98-7.07 2.71-10.84-.12-1.67-.45-3.54-1.45-4.93-1.01-1.4-2.81-2.26-4.46-2.62-3.84-.85-8.11.65-11.62 2.09-4.56 1.86-8.82 4.6-12.81 7.46-4.31 3.1-8.35 6.56-12.2 10.2-13.83 13.05-25.72 28.33-36.34 44.05-10.64 15.76-20.01 32.49-27.45 50-.91 2.14-1.79 4.3-2.64 6.47 3.38-2.65 6.76-5.29 10.14-7.94h-17.91l.36 1.54c8.82-18.61 18.81-36.58 28.79-54.58 4.62-8.34 9.29-16.65 13.77-25.07 2.03-3.82 4.09-7.63 5.93-11.54 1.65-3.51 3.27-7.25 3.92-11.1.49-2.88.22-6.54-1.57-8.95-1.9-2.55-5.39-3.05-8.35-2.75-4.91.49-9.43 2.53-13.65 4.99-4.76 2.77-9.2 6.23-13.36 9.81-16.07 13.84-28.69 31.06-40.25 48.7-10.83 16.53-20.81 33.69-29.05 51.67-.79 1.73-1.56 3.47-2.31 5.22 3.38-2.65 6.76-5.29 10.14-7.94h-18.2c-1.09 0-2.31.71-3.18 1.24-1.52.91-3.03 2.1-4.28 3.35-.99.98-2.11 2.06-2.68 3.35-.21.48-.57 1.54.36 1.54h18.2c1.9 0 3.96-1.69 5.33-2.76 1.71-1.33 3.94-3.12 4.81-5.18 3.55-8.38 7.66-16.55 11.97-24.56 2.4-4.45 4.89-8.85 7.47-13.2 2.57-4.34 4.96-8.22 7.84-12.71 5.66-8.84 11.52-17.6 17.92-25.92.38-.49.75-.98 1.13-1.46l.57-.72c.11-.14.72-.9.26-.33-.46.57.15-.18.26-.32.19-.23.38-.47.57-.7.43-.52.85-1.04 1.29-1.56a190.222 190.222 0 0 1 7.05-8.02c.22-.24.44-.49.67-.72-1.06 1.01-.39.4-.16.17.56-.57 1.11-1.14 1.68-1.71.83-.82 1.66-1.64 2.51-2.44.44-.42.89-.83 1.33-1.24.21-.19.94-.9.14-.13-.86.83.1-.08.3-.26.98-.86 1.97-1.69 2.98-2.51.22-.18.44-.35.66-.53 1.2-.97-1.38 1.04-.16.12.49-.37.98-.74 1.48-1.11.51-.38 1.03-.74 1.55-1.11 1.06-.75-.1.14-.21.14.18 0 .79-.5.98-.62.26-.16.52-.32.78-.47.54-.32.69-.48.07-.06.57-.38 1.26-.66 1.89-.94.25-.11.5-.22.74-.33.77-.35-.28.08.2-.09.54-.19 1.07-.38 1.61-.54.52-.16 1.05-.29 1.58-.41.23-.05.46-.1.69-.14.13-.02.77-.11.36-.06 1.9-.22 3.86-.18 5.66.54l-.51-.21c2.11.94 3.29 2.75 3.83 4.95l-.12-.54c.55 2.53.36 5.01-.32 7.5-.1.35-.2.7-.31 1.05-.15.49.02-.02-.16.49-.29.82-.6 1.63-.93 2.43a82.5 82.5 0 0 1-2.35 5.16c-3.29 6.66-6.87 13.19-10.44 19.71-8 14.57-16.25 29.01-24.08 43.68-4.59 8.6-8.98 17.32-13.16 26.13-.2.43-.55 1.54.36 1.54H1367c1.9 0 3.96-1.69 5.33-2.76 1.67-1.3 4.01-3.13 4.81-5.18 3.73-9.49 8.04-18.73 12.82-27.73 2.37-4.45 4.84-8.85 7.42-13.18.32-.54.64-1.07.96-1.6.16-.27.32-.53.48-.8-.1.17-.36.58.12-.2.65-1.05 1.3-2.1 1.96-3.15 1.32-2.09 2.66-4.15 4.03-6.21 2.83-4.25 5.76-8.43 8.78-12.54 1.47-1.99 2.96-3.97 4.48-5.93.7-.9 1.41-1.8 2.12-2.7.52-.65-.58.72-.06.07.19-.24.39-.48.58-.72.46-.57.92-1.14 1.39-1.71a229.4 229.4 0 0 1 9.74-11.16c.4-.43.8-.85 1.2-1.27.81-.86-.97 1 .17-.18.83-.86 1.67-1.71 2.52-2.55.83-.82 1.66-1.63 2.51-2.43.46-.43.92-.86 1.39-1.28.71-.65-1.08.95-.36.33.29-.25.57-.5.86-.75.99-.85 1.98-1.78 3.05-2.53-.09.06-1.43 1.09-.47.37.22-.17.44-.34.67-.51.55-.41 1.1-.81 1.66-1.21.22-.15.44-.31.66-.46.72-.51-.19.13-.42.28.55-.34 1.08-.7 1.63-1.04.46-.28.92-.56 1.39-.83.27-.16.55-.32.83-.47-1.17.61.19-.08.34-.16.52-.26 1.04-.51 1.57-.74.25-.11.51-.22.77-.33 1.18-.5-.45.12.23-.09 1.07-.33 2.11-.7 3.21-.93.23-.05.45-.09.68-.13.22-.04.22-.04.01-.01.11-.01.22-.03.33-.04.48-.05.96-.08 1.44-.08 1.22-.01 2.37.19 3.5.65l-.51-.21c1.99.93 3.12 2.38 3.63 4.5l-.12-.54c.73 3.51-.04 6.81-1.37 9.89-1.62 3.75-3.72 7.33-5.82 10.84-.09.15-.8 1.33-.45.75-.28.46-.57.92-.86 1.38-.63 1.01-1.27 2.01-1.91 3.01-1.25 1.95-2.52 3.88-3.79 5.82-2.59 3.94-5.24 7.84-7.85 11.76-5.34 8.01-10.56 16.21-14.81 24.86-3.75 7.62-7.18 15.87-6.37 24.53.66 7.13 3.86 14.27 10.95 16.87 7.96 2.93 16.76-.38 23.75-4.26 8.29-4.6 15.74-10.98 22.5-17.59 6.49-6.34 12.47-13.21 18.15-20.28 11.69-14.56 22.24-29.99 32.23-45.76 1.27-2.01 2.53-4.02 3.78-6.04.06-.1 1.37-1.95.75-2.32-.75-.44-1.49-.88-2.24-1.32-1.29-.77-3.43.86-4.39 1.5-2.02 1.35-4.34 3.14-5.65 5.24-8.89 14.26-18.26 28.26-28.48 41.61-1.23 1.6-2.47 3.19-3.72 4.77-.66.83-.06.09.06-.07-.14.18-.28.35-.42.53-.28.35-.56.7-.85 1.05-.65.8-1.31 1.6-1.96 2.39-2.41 2.9-4.89 5.76-7.43 8.54-.55.6-1.1 1.2-1.65 1.79-.23.25-.83 1.14-1.18 1.25.02 0 .86-.89.33-.35-.22.23-.44.46-.67.69-1.45 1.48-2.92 2.94-4.42 4.37-.69.65-1.39 1.29-2.08 1.94-.59.54.65-.58.6-.54-.15.15-.32.28-.47.42l-1.25 1.1c-.66.57-1.34 1.14-2.01 1.69-.3.25-.61.5-.92.74-.15.12-.31.24-.46.36-.7.57 1.28-.98.57-.44-.74.56-1.49 1.13-2.24 1.67-.39.28-.78.56-1.18.83-.13.09-.82.55-.1.07.75-.5-.14.09-.29.18-.51.33-1.03.65-1.56.96l-.57.33c-.7.41.02.15.14-.07-.17.3-1.17.6-1.48.75a34.988 34.988 0 0 1-1.79.79c.57-.24.26-.1-.14.04-.39.14-.79.27-1.19.39-.8.24-1.63.44-2.45.57-.37.06-.03 0 .04-.01-.26.03-.52.05-.77.07-.35.02-.71.04-1.06.04-.99-.01-1.92-.2-2.84-.58l.51.21c-2.15-1.03-3.52-2.91-4.12-5.19l.12.54c-1.51-6.72 2.48-13.5 5.54-19.19.96-1.79 1.96-3.55 2.99-5.3.48-.82.97-1.64 1.46-2.45-.25.41.31-.51.39-.63.31-.51.63-1.02.94-1.52 2.12-3.41 4.26-6.81 6.43-10.18 4.69-7.3 9.39-14.59 13.75-22.1 4.02-6.9 7.87-14.12 10.29-21.76 2-6.29 2.41-13.75-.91-19.7-3.24-5.82-9.87-7.67-16.15-7.26-8.81.57-16.65 4.88-23.8 9.76-7.32 5-14.1 10.9-20.24 17.27-11.86 12.3-22.33 25.93-31.39 40.42-1.1 1.76-2.18 3.53-3.23 5.31 3.55-2.58 7.1-5.15 10.65-7.73-.19-.22-.37-.44-.56-.66-.05.44-.09.88-.14 1.33.55-.97 1.11-1.94 1.68-2.9.32-.55.65-1.1.98-1.65l.63-1.05c.72-1.19-.46.75.29-.48 1.83-2.99 3.7-5.96 5.5-8.97 3.37-5.64 6.63-11.37 9.41-17.33 2.44-5.22 5.08-10.95 5-16.84-.07-5.1-1.62-10.24-5.87-13.38-4.71-3.48-10.54-3.52-16.09-2.63-6.97 1.11-13.37 4.47-19.14 8.4-11.47 7.82-21.33 17.8-30.07 28.52-8.93 10.94-16.57 22.81-24.64 34.37 3.35-2.24 6.7-4.49 10.04-6.73-.19-.22-.37-.44-.56-.66-.05.44-.09.88-.14 1.33 4.16-6.92 8.31-13.85 12.47-20.77 6.63-11.05 13.26-22.09 19.89-33.14l4.59-7.65c.26-.43.51-1.54-.36-1.54h-17.07c-1.9 0-3.96 1.69-5.33 2.76-1.79 1.4-3.78 3.11-4.81 5.18-7.48 14.99-15.5 29.69-23.52 44.39-8.31 15.24-16.72 30.42-25.01 45.67-4.28 7.87-8.46 15.79-12.49 23.79-.3.6-.47 1.38.36 1.54.9.17 2.54-.84 3.18-1.24 2.56-1.56 5.52-3.85 6.93-6.65z" class="st0"/><path d="M546.56 353.49c.26-.15 1.15-.31.98-.04-10.32 16.47-.73-2.66-.5 1.01.09 1.5-16.95 35.09-17.02 36.86-.01.34-.39.51-.63.29-9.12-8.6-12.4-16.92-22.02-21.99-.35-.19-.24-.75.16-.75 2.97.01 5.84-.31 8.65-.91 10.11-2.14 19.49-7.85 30.38-14.47zM537.69 502.08c-5.57-2.54-14.81-5.87-37.55 12.03-8.13 6.4-26.2 26.81-43.27 9.74-15.76-15.76-11.96-91.71 30.42-83.79-11.02-3.89-23.29-12.49-35.97-27.41-15.62 12.63-58.39 64.97-59.11 89.3-.97 32.78 21.4 65.04 53.44 77.09 32.04 12.04 71.53 3.03 94.34-21.53 14.04-15.14 19.06-45.67-2.3-55.43z" class="st2"/><path d="M456.9 410.42c1.29 4.6 49.5 33.21 30.39 29.64 20.56 7.25 36.79-1.89 43.29-16.97 4.96-11.51 3.5-24.76-2.21-35.83-3.16-6.13-7.64-11.59-13.05-15.73-4.97-3.79-10.72-6.46-17-7.5-5.8-.96-11.64-.45-17.17 1.2.62.78 1.26 1.58 1.94 2.42.13.16.04.4-.16.43-1.38.19-3.77-.71-5.79-1.42-.25.1-.5.2-.75.31-1.68.72-3.33 1.56-4.92 2.49-1.43.84-2.82 1.76-4.17 2.74-1.15 1.85-2.79 4.2-5.61 7.22-.16.18-.46.05-.45-.19.03-.63.06-1.24.08-1.84-8.36 8.55-13.52 20.15-12.58 32.14.86 1.07 1.73 2.1 2.59 3.11 3.16-2.55 5.22-3.49 5.57-2.22z" class="st2"/><path d="M467.29 372.2c2.27-3.65 2.68-5.35 6.54-6.32.57-.15 1.84.27 3.29.78 1.32-.54 2.66-1.02 4.02-1.43-8.08-10.12-12.02-15.41-20.73-26.26-.15-.18-.45-.09-.46.15-.85 17.32 1.95 21.86 1.37 38.28 1.84-1.89 3.85-3.63 5.97-5.2z" class="st2"/><path d="M442.45 409.03h-31.47M442.45 409.03l-31.47 15.31M531.27 416.68h37.42M531.27 416.68l37.42 15.31" class="st3"/><path d="M709.66 466.01c1.05 2.13 1.76 4.1 2.22 5.92 1.28 2.05 2.19 4.36 2.56 7.12.03.25.06.48.09.7-.01-.44.04-.62.25-.04.65 1.81.81 4.62.84 6.55.03 1.78-.15 3.58-.5 5.37 5.08-6.54 6.19-17.62-.33-28.43-5.58-9.26-12.31-12.98-21.68-12.98-5.32 0-16.85 1.14-29.82 11.41-9.9 7.84-26.72 28.31-36.15 57.3-5.68 17.47-37.6 37.37-54.4 44.79-16.55 7.31-48.46-5.39-57.42-20.97-.03-.06-.11-.01-.09.05 12.02 28.77 41.5 31.38 61.44 20.11 20.12-11.37 46.18-29.33 56.16-50.17 14.04-29.31 22.2-50.67 43.16-58.9 23.07-9.09 33.01 10.84 33.67 12.17zM546.56 353.49c.26-.15 1.15-.31.98-.04-10.32 16.47-.73-2.66-.5 1.01.09 1.5-16.95 35.09-17.02 36.86-.01.34-.39.51-.63.29-9.12-8.6-12.4-16.92-22.02-21.99-.35-.19-.24-.75.16-.75 2.97.01 5.84-.31 8.65-.91 10.11-2.14 19.49-7.85 30.38-14.47z" class="st2"/><path d="M537.69 502.08c-5.57-2.54-14.81-5.87-37.55 12.03-8.13 6.4-26.2 26.81-43.27 9.74-15.76-15.76-11.96-91.71 30.42-83.79-11.02-3.89-23.29-12.49-35.97-27.41-15.62 12.63-58.39 64.97-59.11 89.3-.97 32.78 21.4 65.04 53.44 77.09 32.04 12.04 71.53 3.03 94.34-21.53 14.04-15.14 19.06-45.67-2.3-55.43z" class="st2"/><path d="M456.9 410.42c1.29 4.6 49.5 33.21 30.39 29.64 20.56 7.25 36.79-1.89 43.29-16.97 4.96-11.51 3.5-24.76-2.21-35.83-3.16-6.13-7.64-11.59-13.05-15.73-4.97-3.79-10.72-6.46-17-7.5-5.8-.96-11.64-.45-17.17 1.2.62.78 1.26 1.58 1.94 2.42.13.16.04.4-.16.43-1.38.19-3.77-.71-5.79-1.42-.25.1-.5.2-.75.31-1.68.72-3.33 1.56-4.92 2.49-1.43.84-2.82 1.76-4.17 2.74-1.15 1.85-2.79 4.2-5.61 7.22-.16.18-.46.05-.45-.19.03-.63.06-1.24.08-1.84-8.36 8.55-13.52 20.15-12.58 32.14.86 1.07 1.73 2.1 2.59 3.11 3.16-2.55 5.22-3.49 5.57-2.22z" class="st2"/><path d="M467.29 372.2c2.27-3.65 2.68-5.35 6.54-6.32.57-.15 1.84.27 3.29.78 1.32-.54 2.66-1.02 4.02-1.43-8.08-10.12-12.02-15.41-20.73-26.26-.15-.18-.45-.09-.46.15-.85 17.32 1.95 21.86 1.37 38.28 1.84-1.89 3.85-3.63 5.97-5.2z" class="st2"/><path d="M442.45 409.03h-31.47M442.45 409.03l-31.47 15.31M531.27 416.68h37.42M531.27 416.68l37.42 15.31" class="st3"/><path d="M709.66 466.01c1.05 2.13 1.76 4.1 2.22 5.92 1.28 2.05 2.19 4.36 2.56 7.12.03.25.06.48.09.7-.01-.44.04-.62.25-.04.65 1.81.81 4.62.84 6.55.03 1.78-.15 3.58-.5 5.37 5.08-6.54 6.19-17.62-.33-28.43-5.58-9.26-12.31-12.98-21.68-12.98-5.32 0-16.85 1.14-29.82 11.41-9.9 7.84-26.72 28.31-36.15 57.3-5.68 17.47-37.6 37.37-54.4 44.79-16.55 7.31-48.46-5.39-57.42-20.97-.03-.06-.11-.01-.09.05 12.02 28.77 41.5 31.38 61.44 20.11 20.12-11.37 46.18-29.33 56.16-50.17 14.04-29.31 22.2-50.67 43.16-58.9 23.07-9.09 33.01 10.84 33.67 12.17z" class="st2"/><path d="M661.5 464.37c-9.65 28.01-25.92 62.32-12.73 95.7 1.22 10.39-14.19 12.91-20.48 13.37s-11.5-15.3-11.87-21.6c-2.2-37.2 18.1-61.54 45.08-87.47z" style="fill:#fff;stroke:#fff;stroke-width:1.2568;stroke-miterlimit:10;stroke-dasharray:0,0,0,0,0,0"/><path d="M709.37 461.61v-.38c8.04 26.29-2.66 52.12-16.25 75.49" class="st2"/></svg>